<svg id="svg" version="1.1" xmlns="http://www.w3.org/2000/svg" xmlns:xlink="http://www.w3.org/1999/xlink" width="400" height="400" viewBox="0, 0, 400,400"><g id="svgg"><path id="path0" d="M180.584 31.360 C 178.705 31.948,177.297 32.710,167.200 38.600 C 165.880 39.370,163.765 40.596,162.500 41.323 C 131.686 59.054,130.746 59.705,128.730 64.697 L 127.800 67.000 127.800 196.600 L 127.800 326.200 128.790 328.946 C 130.803 334.529,130.822 334.542,168.673 356.307 C 184.803 365.582,182.379 366.036,213.400 347.932 C 224.180 341.641,233.900 335.998,235.000 335.393 C 236.100 334.788,237.180 334.156,237.400 333.989 C 237.620 333.822,238.430 333.331,239.200 332.899 C 239.970 332.466,242.850 330.803,245.600 329.203 C 255.682 323.336,262.484 319.382,263.726 318.665 C 281.014 308.692,281.942 307.943,283.560 302.658 C 284.580 299.328,284.915 196.838,283.917 193.640 C 282.402 188.786,277.931 185.614,272.600 185.612 L 269.400 185.611 263.200 189.133 C 259.790 191.070,252.050 195.501,246.000 198.980 C 239.950 202.459,234.370 205.664,233.600 206.101 C 219.975 213.846,217.953 215.868,216.814 222.887 C 216.162 226.904,216.275 274.095,216.942 276.600 C 219.819 287.395,234.115 289.099,238.766 279.201 L 239.800 277.000 239.920 253.344 C 240.056 226.700,239.691 229.424,243.400 227.374 C 247.715 224.988,248.213 224.705,248.600 224.411 C 248.820 224.244,249.810 223.658,250.800 223.110 C 251.790 222.562,253.269 221.734,254.088 221.270 C 259.770 218.051,260.813 217.569,261.007 218.076 C 261.116 218.364,261.160 235.407,261.103 255.950 L 261.000 293.299 255.000 296.784 C 249.344 300.070,229.121 311.775,223.000 315.306 C 221.460 316.195,219.529 317.344,218.709 317.861 C 217.888 318.377,217.115 318.800,216.989 318.800 C 216.864 318.800,215.777 319.430,214.573 320.200 C 213.369 320.970,212.289 321.600,212.173 321.600 C 212.057 321.600,210.977 322.230,209.773 323.000 C 208.569 323.770,207.519 324.400,207.439 324.400 C 207.358 324.400,203.291 326.740,198.400 329.600 C 193.509 332.460,189.442 334.800,189.361 334.800 C 189.281 334.800,188.231 335.430,187.027 336.200 C 184.423 337.865,183.690 337.920,181.600 336.600 C 180.729 336.050,179.926 335.600,179.816 335.600 C 179.706 335.600,178.631 334.970,177.427 334.200 C 176.223 333.430,175.143 332.800,175.027 332.800 C 174.911 332.800,173.831 332.170,172.627 331.400 C 171.423 330.630,170.343 330.000,170.227 330.000 C 170.111 330.000,169.031 329.370,167.827 328.600 C 166.623 327.830,165.543 327.200,165.427 327.200 C 165.311 327.200,164.231 326.570,163.027 325.800 C 161.823 325.030,160.743 324.400,160.627 324.400 C 160.511 324.400,159.431 323.770,158.227 323.000 C 157.023 322.230,155.943 321.600,155.827 321.600 C 155.711 321.600,154.622 320.964,153.408 320.188 L 151.200 318.775 151.210 196.888 L 151.220 75.000 170.489 63.800 C 194.124 50.062,194.818 49.492,195.449 43.268 C 196.234 35.528,188.095 29.007,180.584 31.360 M180.429 82.846 C 177.252 83.805,174.341 86.596,173.060 89.908 C 172.009 92.627,172.048 301.063,173.100 304.140 C 176.664 314.563,191.691 313.784,195.084 303.000 C 195.823 300.652,195.823 93.348,195.084 91.000 C 193.088 84.656,186.526 81.004,180.429 82.846 " stroke="none" fill="#040404" fill-rule="evenodd"></path><path id="path1" d="M175.100 0.276 C 172.012 0.397,171.200 0.551,171.200 1.014 C 171.200 1.480,170.543 1.600,168.000 1.600 C 166.133 1.600,164.800 1.767,164.800 2.000 C 164.800 2.222,163.744 2.400,162.433 2.400 C 161.132 2.400,160.007 2.570,159.933 2.778 C 159.860 2.986,158.837 3.199,157.659 3.251 C 156.332 3.310,155.442 3.547,155.317 3.873 C 155.192 4.198,154.441 4.400,153.357 4.400 C 152.391 4.400,151.600 4.580,151.600 4.800 C 151.600 5.020,150.790 5.200,149.800 5.200 C 148.810 5.200,148.000 5.380,148.000 5.600 C 148.000 5.820,147.370 6.000,146.600 6.000 C 145.830 6.000,145.200 6.163,145.200 6.362 C 145.200 6.562,144.300 6.849,143.200 7.000 C 142.100 7.151,141.200 7.438,141.200 7.638 C 141.200 7.837,140.570 8.000,139.800 8.000 C 139.030 8.000,138.400 8.180,138.400 8.400 C 138.400 8.620,137.770 8.800,137.000 8.800 C 136.230 8.800,135.600 8.980,135.600 9.200 C 135.600 9.420,135.163 9.600,134.629 9.600 C 134.094 9.600,133.387 9.870,133.057 10.200 C 132.727 10.530,131.904 10.800,131.229 10.800 C 130.553 10.800,130.000 10.980,130.000 11.200 C 130.000 11.420,129.578 11.600,129.061 11.600 C 127.944 11.600,125.600 12.703,125.600 13.229 C 125.600 13.433,124.970 13.600,124.200 13.600 C 123.430 13.600,122.800 13.780,122.800 14.000 C 122.800 14.220,122.350 14.400,121.800 14.400 C 121.250 14.400,120.800 14.580,120.800 14.800 C 120.800 15.020,120.474 15.200,120.076 15.200 C 119.679 15.200,119.004 15.464,118.576 15.787 C 118.149 16.110,117.395 16.380,116.900 16.387 C 116.405 16.394,116.000 16.580,116.000 16.800 C 116.000 17.020,115.640 17.200,115.200 17.200 C 114.760 17.200,114.400 17.380,114.400 17.600 C 114.400 17.820,114.034 18.000,113.587 18.000 C 113.141 18.000,112.671 18.270,112.545 18.600 C 112.418 18.930,111.984 19.200,111.581 19.200 C 111.177 19.200,110.736 19.380,110.600 19.600 C 110.464 19.820,110.003 20.000,109.576 20.000 C 109.149 20.000,108.800 20.180,108.800 20.400 C 108.800 20.620,108.434 20.800,107.987 20.800 C 107.541 20.800,107.071 21.070,106.945 21.400 C 106.818 21.730,106.384 22.000,105.981 22.000 C 105.577 22.000,105.136 22.180,105.000 22.400 C 104.864 22.620,104.403 22.800,103.976 22.800 C 103.549 22.800,103.200 22.980,103.200 23.200 C 103.200 23.420,102.834 23.600,102.387 23.600 C 101.941 23.600,101.471 23.870,101.345 24.200 C 101.218 24.530,100.808 24.800,100.433 24.800 C 100.058 24.800,99.364 25.160,98.892 25.600 C 98.420 26.040,97.750 26.400,97.404 26.400 C 97.058 26.400,96.671 26.670,96.545 27.000 C 96.418 27.330,95.974 27.600,95.557 27.600 C 95.141 27.600,94.800 27.780,94.800 28.000 C 94.800 28.220,94.530 28.400,94.200 28.400 C 93.870 28.400,93.600 28.580,93.600 28.800 C 93.600 29.020,93.324 29.200,92.987 29.200 C 92.651 29.200,92.271 29.470,92.145 29.800 C 92.018 30.130,91.664 30.400,91.357 30.400 C 91.051 30.400,90.800 30.580,90.800 30.800 C 90.800 31.020,90.506 31.200,90.146 31.200 C 89.786 31.200,89.075 31.650,88.565 32.200 C 88.055 32.750,87.360 33.200,87.019 33.200 C 86.679 33.200,86.400 33.380,86.400 33.600 C 86.400 33.820,86.130 34.000,85.800 34.000 C 85.470 34.000,85.200 34.180,85.200 34.400 C 85.200 34.620,84.924 34.800,84.587 34.800 C 84.251 34.800,83.871 35.070,83.745 35.400 C 83.618 35.730,83.264 36.000,82.957 36.000 C 82.651 36.000,82.400 36.180,82.400 36.400 C 82.400 36.620,82.106 36.800,81.746 36.800 C 81.386 36.800,80.675 37.250,80.165 37.800 C 79.655 38.350,78.960 38.800,78.619 38.800 C 78.279 38.800,78.000 38.980,78.000 39.200 C 78.000 39.420,77.807 39.600,77.571 39.600 C 77.048 39.600,76.000 40.606,76.000 41.109 C 76.000 41.310,75.190 41.891,74.200 42.400 C 73.210 42.909,72.400 43.567,72.400 43.863 C 72.400 44.158,72.212 44.400,71.982 44.400 C 71.439 44.400,69.600 46.239,69.600 46.782 C 69.600 47.012,69.330 47.200,69.000 47.200 C 68.670 47.200,68.400 47.380,68.400 47.600 C 68.400 47.820,68.130 48.000,67.800 48.000 C 67.113 48.000,50.000 64.922,50.000 65.601 C 50.000 65.846,49.865 65.975,49.700 65.887 C 49.334 65.692,48.249 66.854,48.070 67.633 C 47.999 67.945,47.774 68.260,47.570 68.333 C 47.367 68.407,47.200 68.722,47.200 69.033 C 47.200 69.345,47.012 69.600,46.782 69.600 C 46.239 69.600,44.400 71.439,44.400 71.982 C 44.400 72.212,44.158 72.400,43.863 72.400 C 43.567 72.400,42.909 73.210,42.400 74.200 C 41.891 75.190,41.310 76.000,41.109 76.000 C 40.606 76.000,39.600 77.048,39.600 77.571 C 39.600 77.807,39.420 78.000,39.200 78.000 C 38.980 78.000,38.800 78.279,38.800 78.619 C 38.800 78.960,38.350 79.655,37.800 80.165 C 37.250 80.675,36.800 81.386,36.800 81.746 C 36.800 82.106,36.620 82.400,36.400 82.400 C 36.180 82.400,36.000 82.651,36.000 82.957 C 36.000 83.264,35.730 83.618,35.400 83.745 C 35.070 83.871,34.800 84.251,34.800 84.587 C 34.800 84.924,34.620 85.200,34.400 85.200 C 34.180 85.200,34.000 85.470,34.000 85.800 C 34.000 86.130,33.820 86.400,33.600 86.400 C 33.380 86.400,33.200 86.679,33.200 87.019 C 33.200 87.360,32.750 88.055,32.200 88.565 C 31.650 89.075,31.200 89.786,31.200 90.146 C 31.200 90.506,31.020 90.800,30.800 90.800 C 30.580 90.800,30.400 91.051,30.400 91.357 C 30.400 91.664,30.130 92.018,29.800 92.145 C 29.470 92.271,29.200 92.651,29.200 92.987 C 29.200 93.324,29.020 93.600,28.800 93.600 C 28.580 93.600,28.400 93.870,28.400 94.200 C 28.400 94.530,28.220 94.800,28.000 94.800 C 27.780 94.800,27.600 95.141,27.600 95.557 C 27.600 95.974,27.330 96.418,27.000 96.545 C 26.670 96.671,26.400 97.058,26.400 97.404 C 26.400 97.750,26.040 98.420,25.600 98.892 C 25.160 99.364,24.800 100.058,24.800 100.433 C 24.800 100.808,24.530 101.218,24.200 101.345 C 23.870 101.471,23.600 101.941,23.600 102.387 C 23.600 102.834,23.420 103.200,23.200 103.200 C 22.980 103.200,22.800 103.549,22.800 103.976 C 22.800 104.403,22.620 104.864,22.400 105.000 C 22.180 105.136,22.000 105.577,22.000 105.981 C 22.000 106.384,21.730 106.818,21.400 106.945 C 21.070 107.071,20.800 107.541,20.800 107.987 C 20.800 108.434,20.620 108.800,20.400 108.800 C 20.180 108.800,20.000 109.149,20.000 109.576 C 20.000 110.003,19.820 110.464,19.600 110.600 C 19.380 110.736,19.200 111.177,19.200 111.581 C 19.200 111.984,18.930 112.418,18.600 112.545 C 18.270 112.671,18.000 113.141,18.000 113.587 C 18.000 114.034,17.820 114.400,17.600 114.400 C 17.380 114.400,17.200 114.760,17.200 115.200 C 17.200 115.640,17.020 116.000,16.800 116.000 C 16.580 116.000,16.394 116.405,16.387 116.900 C 16.380 117.395,16.110 118.149,15.787 118.576 C 15.464 119.004,15.200 119.679,15.200 120.076 C 15.200 120.474,15.020 120.800,14.800 120.800 C 14.580 120.800,14.400 121.250,14.400 121.800 C 14.400 122.350,14.220 122.800,14.000 122.800 C 13.780 122.800,13.600 123.430,13.600 124.200 C 13.600 124.970,13.433 125.600,13.229 125.600 C 12.703 125.600,11.600 127.944,11.600 129.061 C 11.600 129.578,11.420 130.000,11.200 130.000 C 10.980 130.000,10.800 130.553,10.800 131.229 C 10.800 131.904,10.530 132.727,10.200 133.057 C 9.870 133.387,9.600 134.094,9.600 134.629 C 9.600 135.163,9.420 135.600,9.200 135.600 C 8.980 135.600,8.800 136.230,8.800 137.000 C 8.800 137.770,8.620 138.400,8.400 138.400 C 8.180 138.400,8.000 139.030,8.000 139.800 C 8.000 140.570,7.837 141.200,7.638 141.200 C 7.438 141.200,7.151 142.100,7.000 143.200 C 6.849 144.300,6.562 145.200,6.362 145.200 C 6.163 145.200,6.000 145.830,6.000 146.600 C 6.000 147.370,5.820 148.000,5.600 148.000 C 5.380 148.000,5.200 148.810,5.200 149.800 C 5.200 150.790,5.020 151.600,4.800 151.600 C 4.580 151.600,4.400 152.391,4.400 153.357 C 4.400 154.441,4.198 155.192,3.873 155.317 C 3.547 155.442,3.310 156.332,3.251 157.659 C 3.199 158.837,2.986 159.860,2.778 159.933 C 2.570 160.007,2.400 161.132,2.400 162.433 C 2.400 163.744,2.222 164.800,2.000 164.800 C 1.767 164.800,1.600 166.133,1.600 168.000 C 1.600 170.466,1.472 171.200,1.044 171.200 C -0.327 171.200,-0.451 227.589,0.917 228.589 C 1.450 228.978,1.600 229.712,1.600 231.920 C 1.600 233.478,1.780 234.864,2.000 235.000 C 2.220 235.136,2.400 236.302,2.400 237.590 C 2.400 238.879,2.570 239.993,2.778 240.067 C 2.986 240.140,3.198 241.138,3.249 242.284 C 3.306 243.572,3.544 244.446,3.871 244.572 C 4.202 244.699,4.400 245.453,4.400 246.587 C 4.400 247.584,4.580 248.400,4.800 248.400 C 5.020 248.400,5.200 249.210,5.200 250.200 C 5.200 251.190,5.380 252.000,5.600 252.000 C 5.820 252.000,6.000 252.619,6.000 253.376 C 6.000 254.133,6.170 254.858,6.377 254.986 C 6.584 255.114,6.875 256.024,7.022 257.009 C 7.170 257.994,7.450 258.800,7.645 258.800 C 7.840 258.800,8.000 259.430,8.000 260.200 C 8.000 260.970,8.180 261.600,8.400 261.600 C 8.620 261.600,8.800 262.230,8.800 263.000 C 8.800 263.770,8.980 264.400,9.200 264.400 C 9.420 264.400,9.600 264.837,9.600 265.371 C 9.600 265.906,9.870 266.613,10.200 266.943 C 10.530 267.273,10.800 268.096,10.800 268.771 C 10.800 269.447,10.980 270.000,11.200 270.000 C 11.420 270.000,11.600 270.422,11.600 270.939 C 11.600 272.056,12.703 274.400,13.229 274.400 C 13.433 274.400,13.600 275.030,13.600 275.800 C 13.600 276.570,13.780 277.200,14.000 277.200 C 14.220 277.200,14.400 277.650,14.400 278.200 C 14.400 278.750,14.580 279.200,14.800 279.200 C 15.020 279.200,15.200 279.487,15.200 279.838 C 15.200 280.189,15.496 281.044,15.857 281.738 C 17.064 284.055,17.200 284.386,17.200 284.995 C 17.200 285.328,17.380 285.600,17.600 285.600 C 17.820 285.600,18.000 285.966,18.000 286.413 C 18.000 286.859,18.270 287.329,18.600 287.455 C 18.930 287.582,19.200 288.116,19.200 288.643 C 19.200 289.169,19.380 289.600,19.600 289.600 C 19.820 289.600,20.000 289.960,20.000 290.400 C 20.000 290.840,20.180 291.200,20.400 291.200 C 20.620 291.200,20.800 291.566,20.800 292.013 C 20.800 292.459,21.070 292.929,21.400 293.055 C 21.730 293.182,22.000 293.716,22.000 294.243 C 22.000 294.769,22.180 295.200,22.400 295.200 C 22.620 295.200,22.800 295.560,22.800 296.000 C 22.800 296.440,22.980 296.800,23.200 296.800 C 23.420 296.800,23.600 297.166,23.600 297.613 C 23.600 298.059,23.870 298.529,24.200 298.655 C 24.530 298.782,24.800 299.192,24.800 299.567 C 24.800 299.942,25.160 300.636,25.600 301.108 C 26.040 301.580,26.400 302.250,26.400 302.596 C 26.400 302.942,26.670 303.329,27.000 303.455 C 27.330 303.582,27.600 304.026,27.600 304.443 C 27.600 304.859,27.759 305.200,27.954 305.200 C 28.149 305.200,28.608 305.830,28.973 306.600 C 29.339 307.370,29.809 308.000,30.019 308.000 C 30.228 308.000,30.400 308.270,30.400 308.600 C 30.400 308.930,30.580 309.200,30.800 309.200 C 31.020 309.200,31.200 309.494,31.200 309.854 C 31.200 310.214,31.650 310.925,32.200 311.435 C 32.750 311.945,33.200 312.640,33.200 312.981 C 33.200 313.321,33.380 313.600,33.600 313.600 C 33.820 313.600,34.000 313.870,34.000 314.200 C 34.000 314.530,34.180 314.800,34.400 314.800 C 34.620 314.800,34.800 315.076,34.800 315.413 C 34.800 315.749,35.070 316.129,35.400 316.255 C 35.730 316.382,36.000 316.736,36.000 317.043 C 36.000 317.349,36.180 317.600,36.400 317.600 C 36.620 317.600,36.800 317.894,36.800 318.254 C 36.800 318.614,37.205 319.290,37.700 319.757 C 38.195 320.224,38.870 321.145,39.200 321.803 C 39.901 323.202,40.595 324.000,41.109 324.000 C 41.310 324.000,41.891 324.810,42.400 325.800 C 42.909 326.790,43.567 327.600,43.863 327.600 C 44.158 327.600,44.400 327.788,44.400 328.018 C 44.400 328.561,46.239 330.400,46.782 330.400 C 47.012 330.400,47.200 330.670,47.200 331.000 C 47.200 331.330,47.380 331.600,47.600 331.600 C 47.820 331.600,48.000 331.873,48.000 332.206 C 48.000 332.887,64.942 350.000,65.616 350.000 C 65.853 350.000,65.936 350.180,65.800 350.400 C 65.664 350.620,65.756 350.800,66.005 350.800 C 66.254 350.800,66.708 351.025,67.015 351.300 C 68.338 352.487,68.791 352.800,69.183 352.800 C 69.412 352.800,69.600 352.988,69.600 353.218 C 69.600 353.761,71.439 355.600,71.982 355.600 C 72.212 355.600,72.400 355.855,72.400 356.166 C 72.400 356.478,72.927 356.966,73.571 357.251 C 74.215 357.536,74.655 357.912,74.548 358.085 C 74.440 358.258,74.693 358.400,75.109 358.400 C 75.525 358.400,76.084 358.810,76.353 359.311 C 76.621 359.812,77.409 360.474,78.105 360.782 C 78.801 361.090,79.757 361.760,80.231 362.271 C 80.704 362.782,81.386 363.200,81.746 363.200 C 82.106 363.200,82.400 363.380,82.400 363.600 C 82.400 363.820,82.670 364.000,83.000 364.000 C 83.330 364.000,83.600 364.139,83.600 364.309 C 83.600 364.479,84.230 364.957,85.000 365.372 C 85.770 365.787,86.400 366.278,86.400 366.463 C 86.400 366.648,86.679 366.800,87.019 366.800 C 87.360 366.800,88.055 367.250,88.565 367.800 C 89.075 368.350,89.786 368.800,90.146 368.800 C 90.506 368.800,90.800 368.980,90.800 369.200 C 90.800 369.420,91.070 369.600,91.400 369.600 C 91.730 369.600,92.000 369.772,92.000 369.981 C 92.000 370.191,92.630 370.661,93.400 371.027 C 94.170 371.392,94.800 371.851,94.800 372.046 C 94.800 372.241,95.141 372.400,95.557 372.400 C 95.974 372.400,96.418 372.670,96.545 373.000 C 96.671 373.330,97.141 373.600,97.587 373.600 C 98.034 373.600,98.400 373.780,98.400 374.000 C 98.400 374.220,98.670 374.400,99.000 374.400 C 99.330 374.400,99.600 374.580,99.600 374.800 C 99.600 375.020,99.941 375.200,100.357 375.200 C 100.774 375.200,101.218 375.470,101.345 375.800 C 101.471 376.130,101.941 376.400,102.387 376.400 C 102.834 376.400,103.200 376.580,103.200 376.800 C 103.200 377.020,103.560 377.200,104.000 377.200 C 104.440 377.200,104.800 377.380,104.800 377.600 C 104.800 377.820,105.231 378.000,105.757 378.000 C 106.284 378.000,106.818 378.270,106.945 378.600 C 107.071 378.930,107.541 379.200,107.987 379.200 C 108.434 379.200,108.800 379.380,108.800 379.600 C 108.800 379.820,109.160 380.000,109.600 380.000 C 110.040 380.000,110.400 380.180,110.400 380.400 C 110.400 380.620,110.831 380.800,111.357 380.800 C 111.884 380.800,112.418 381.070,112.545 381.400 C 112.671 381.730,113.141 382.000,113.587 382.000 C 114.034 382.000,114.400 382.180,114.400 382.400 C 114.400 382.620,114.760 382.800,115.200 382.800 C 115.640 382.800,116.000 382.980,116.000 383.200 C 116.000 383.420,116.373 383.600,116.829 383.600 C 117.284 383.600,117.927 383.870,118.257 384.200 C 118.587 384.530,119.294 384.800,119.829 384.800 C 120.363 384.800,120.800 384.980,120.800 385.200 C 120.800 385.420,121.250 385.600,121.800 385.600 C 122.350 385.600,122.800 385.780,122.800 386.000 C 122.800 386.220,123.430 386.400,124.200 386.400 C 125.178 386.400,125.600 386.581,125.600 387.000 C 125.600 387.330,125.949 387.600,126.376 387.600 C 126.803 387.600,127.264 387.780,127.400 388.000 C 127.536 388.220,128.177 388.400,128.824 388.400 C 129.471 388.400,130.000 388.580,130.000 388.800 C 130.000 389.020,130.611 389.200,131.357 389.200 C 132.195 389.200,132.803 389.430,132.945 389.800 C 133.079 390.151,133.679 390.400,134.387 390.400 C 135.054 390.400,135.600 390.580,135.600 390.800 C 135.600 391.020,136.230 391.200,137.000 391.200 C 137.770 391.200,138.400 391.380,138.400 391.600 C 138.400 391.820,138.953 392.000,139.629 392.000 C 140.304 392.000,141.127 392.270,141.457 392.600 C 141.787 392.930,142.764 393.200,143.629 393.200 C 144.493 393.200,145.200 393.380,145.200 393.600 C 145.200 393.820,145.830 394.000,146.600 394.000 C 147.370 394.000,148.000 394.180,148.000 394.400 C 148.000 394.620,148.795 394.800,149.767 394.800 C 150.738 394.800,151.601 395.003,151.684 395.251 C 151.838 395.713,154.187 396.247,157.900 396.664 C 159.055 396.793,160.000 397.057,160.000 397.250 C 160.000 397.442,161.035 397.606,162.300 397.613 C 163.685 397.620,164.909 397.859,165.376 398.213 C 165.862 398.580,167.067 398.800,168.596 398.800 C 170.018 398.800,171.249 399.009,171.540 399.300 C 172.271 400.031,228.456 400.031,228.700 399.300 C 228.810 398.971,229.720 398.800,231.357 398.800 C 232.927 398.800,234.134 398.583,234.624 398.213 C 235.091 397.859,236.315 397.620,237.700 397.613 C 238.965 397.606,240.000 397.437,240.000 397.239 C 240.000 397.040,240.855 396.782,241.900 396.665 C 245.781 396.231,248.163 395.710,248.313 395.262 C 248.398 395.006,249.254 394.800,250.233 394.800 C 251.205 394.800,252.000 394.620,252.000 394.400 C 252.000 394.180,252.619 394.000,253.376 394.000 C 254.133 394.000,254.864 393.820,255.000 393.600 C 255.136 393.380,255.854 393.200,256.595 393.200 C 257.336 393.200,258.213 392.930,258.543 392.600 C 258.873 392.270,259.696 392.000,260.371 392.000 C 261.047 392.000,261.600 391.820,261.600 391.600 C 261.600 391.380,262.230 391.200,263.000 391.200 C 263.770 391.200,264.400 391.020,264.400 390.800 C 264.400 390.580,264.946 390.400,265.613 390.400 C 266.321 390.400,266.921 390.151,267.055 389.800 C 267.197 389.430,267.805 389.200,268.643 389.200 C 269.389 389.200,270.000 389.020,270.000 388.800 C 270.000 388.580,270.529 388.400,271.176 388.400 C 271.823 388.400,272.464 388.220,272.600 388.000 C 272.736 387.780,273.197 387.600,273.624 387.600 C 274.051 387.600,274.400 387.330,274.400 387.000 C 274.400 386.581,274.822 386.400,275.800 386.400 C 276.570 386.400,277.200 386.220,277.200 386.000 C 277.200 385.780,277.650 385.600,278.200 385.600 C 278.750 385.600,279.200 385.420,279.200 385.200 C 279.200 384.980,279.628 384.800,280.151 384.800 C 280.674 384.800,281.326 384.530,281.600 384.200 C 281.874 383.870,282.526 383.600,283.049 383.600 C 283.572 383.600,284.000 383.420,284.000 383.200 C 284.000 382.980,284.360 382.800,284.800 382.800 C 285.240 382.800,285.600 382.620,285.600 382.400 C 285.600 382.180,286.050 382.000,286.600 382.000 C 287.222 382.000,287.600 381.773,287.600 381.400 C 287.600 381.027,287.978 380.800,288.600 380.800 C 289.150 380.800,289.600 380.620,289.600 380.400 C 289.600 380.180,289.960 380.000,290.400 380.000 C 290.840 380.000,291.200 379.820,291.200 379.600 C 291.200 379.380,291.650 379.200,292.200 379.200 C 292.822 379.200,293.200 378.973,293.200 378.600 C 293.200 378.227,293.578 378.000,294.200 378.000 C 294.750 378.000,295.200 377.820,295.200 377.600 C 295.200 377.380,295.560 377.200,296.000 377.200 C 296.440 377.200,296.800 377.020,296.800 376.800 C 296.800 376.580,297.166 376.400,297.613 376.400 C 298.059 376.400,298.529 376.130,298.655 375.800 C 298.782 375.470,299.226 375.200,299.643 375.200 C 300.059 375.200,300.400 375.020,300.400 374.800 C 300.400 374.580,300.670 374.400,301.000 374.400 C 301.330 374.400,301.600 374.220,301.600 374.000 C 301.600 373.780,301.966 373.600,302.413 373.600 C 302.859 373.600,303.329 373.330,303.455 373.000 C 303.582 372.670,303.944 372.400,304.260 372.400 C 304.575 372.400,305.220 372.040,305.692 371.600 C 306.164 371.160,306.877 370.800,307.275 370.800 C 307.674 370.800,308.000 370.530,308.000 370.200 C 308.000 369.870,308.270 369.600,308.600 369.600 C 308.930 369.600,309.200 369.420,309.200 369.200 C 309.200 368.980,309.494 368.800,309.854 368.800 C 310.214 368.800,310.925 368.350,311.435 367.800 C 311.945 367.250,312.640 366.800,312.981 366.800 C 313.321 366.800,313.600 366.648,313.600 366.463 C 313.600 366.278,314.230 365.787,315.000 365.372 C 315.770 364.957,316.400 364.479,316.400 364.309 C 316.400 364.139,316.670 364.000,317.000 364.000 C 317.330 364.000,317.600 363.820,317.600 363.600 C 317.600 363.380,317.894 363.200,318.254 363.200 C 318.614 363.200,319.325 362.750,319.835 362.200 C 320.345 361.650,320.863 361.200,320.987 361.200 C 321.562 361.200,323.991 359.344,323.995 358.900 C 323.998 358.625,324.371 358.400,324.824 358.400 C 325.277 358.400,325.536 358.220,325.400 358.000 C 325.264 357.780,325.493 357.600,325.909 357.600 C 326.325 357.600,326.906 357.150,327.200 356.600 C 327.494 356.050,327.893 355.600,328.086 355.600 C 328.578 355.600,330.400 353.724,330.400 353.218 C 330.400 352.988,330.593 352.800,330.829 352.800 C 331.064 352.800,331.508 352.575,331.815 352.300 C 333.148 351.104,333.593 350.800,334.007 350.800 C 334.249 350.800,334.336 350.620,334.200 350.400 C 334.064 350.180,334.146 350.000,334.382 350.000 C 334.927 350.000,350.800 334.149,350.800 333.605 C 350.800 333.382,351.070 333.200,351.400 333.200 C 351.733 333.200,352.000 332.844,352.000 332.400 C 352.000 331.960,352.180 331.600,352.400 331.600 C 352.620 331.600,352.800 331.330,352.800 331.000 C 352.800 330.670,352.988 330.400,353.218 330.400 C 353.724 330.400,355.600 328.578,355.600 328.086 C 355.600 327.893,356.050 327.494,356.600 327.200 C 357.150 326.906,357.600 326.325,357.600 325.909 C 357.600 325.493,357.780 325.264,358.000 325.400 C 358.220 325.536,358.400 325.277,358.400 324.824 C 358.400 324.371,358.625 323.998,358.900 323.995 C 359.344 323.991,361.200 321.562,361.200 320.987 C 361.200 320.863,361.650 320.345,362.200 319.835 C 362.750 319.325,363.200 318.614,363.200 318.254 C 363.200 317.894,363.380 317.600,363.600 317.600 C 363.820 317.600,364.000 317.330,364.000 317.000 C 364.000 316.670,364.139 316.400,364.309 316.400 C 364.479 316.400,364.957 315.770,365.372 315.000 C 365.787 314.230,366.278 313.600,366.463 313.600 C 366.648 313.600,366.800 313.321,366.800 312.981 C 366.800 312.640,367.250 311.945,367.800 311.435 C 368.350 310.925,368.800 310.214,368.800 309.854 C 368.800 309.494,368.980 309.200,369.200 309.200 C 369.420 309.200,369.600 308.930,369.600 308.600 C 369.600 308.270,369.870 308.000,370.200 308.000 C 370.530 308.000,370.800 307.674,370.800 307.275 C 370.800 306.877,371.160 306.164,371.600 305.692 C 372.040 305.220,372.400 304.575,372.400 304.260 C 372.400 303.944,372.670 303.582,373.000 303.455 C 373.330 303.329,373.600 302.859,373.600 302.413 C 373.600 301.966,373.780 301.600,374.000 301.600 C 374.220 301.600,374.400 301.319,374.400 300.976 C 374.400 300.633,374.580 300.464,374.800 300.600 C 375.025 300.739,375.200 300.418,375.200 299.866 C 375.200 299.327,375.470 298.782,375.800 298.655 C 376.130 298.529,376.400 298.059,376.400 297.613 C 376.400 297.166,376.580 296.800,376.800 296.800 C 377.020 296.800,377.200 296.440,377.200 296.000 C 377.200 295.560,377.380 295.200,377.600 295.200 C 377.820 295.200,378.000 294.750,378.000 294.200 C 378.000 293.578,378.227 293.200,378.600 293.200 C 378.973 293.200,379.200 292.822,379.200 292.200 C 379.200 291.650,379.380 291.200,379.600 291.200 C 379.820 291.200,380.000 290.840,380.000 290.400 C 380.000 289.960,380.180 289.600,380.400 289.600 C 380.620 289.600,380.800 289.150,380.800 288.600 C 380.800 287.978,381.027 287.600,381.400 287.600 C 381.773 287.600,382.000 287.222,382.000 286.600 C 382.000 286.050,382.180 285.600,382.400 285.600 C 382.620 285.600,382.800 285.240,382.800 284.800 C 382.800 284.360,382.980 284.000,383.200 284.000 C 383.420 284.000,383.600 283.572,383.600 283.049 C 383.600 282.526,383.870 281.874,384.200 281.600 C 384.530 281.326,384.800 280.674,384.800 280.151 C 384.800 279.628,384.980 279.200,385.200 279.200 C 385.420 279.200,385.600 278.750,385.600 278.200 C 385.600 277.650,385.780 277.200,386.000 277.200 C 386.220 277.200,386.400 276.570,386.400 275.800 C 386.400 274.822,386.581 274.400,387.000 274.400 C 387.330 274.400,387.600 274.051,387.600 273.624 C 387.600 273.197,387.780 272.736,388.000 272.600 C 388.220 272.464,388.400 271.823,388.400 271.176 C 388.400 270.529,388.580 270.000,388.800 270.000 C 389.020 270.000,389.200 269.389,389.200 268.643 C 389.200 267.805,389.430 267.197,389.800 267.055 C 390.151 266.921,390.400 266.321,390.400 265.613 C 390.400 264.946,390.580 264.400,390.800 264.400 C 391.020 264.400,391.200 263.770,391.200 263.000 C 391.200 262.230,391.380 261.600,391.600 261.600 C 391.820 261.600,392.000 260.989,392.000 260.243 C 392.000 259.405,392.230 258.797,392.600 258.655 C 392.994 258.504,393.200 257.880,393.200 256.836 C 393.200 255.962,393.380 255.136,393.600 255.000 C 393.820 254.864,394.000 254.133,394.000 253.376 C 394.000 252.619,394.180 252.000,394.400 252.000 C 394.620 252.000,394.800 251.205,394.800 250.233 C 394.800 249.254,395.006 248.398,395.262 248.313 C 395.710 248.163,396.231 245.781,396.665 241.900 C 396.782 240.855,397.040 240.000,397.239 240.000 C 397.437 240.000,397.600 238.942,397.600 237.649 C 397.600 236.047,397.791 235.139,398.200 234.800 C 398.626 234.447,398.800 233.512,398.800 231.584 C 398.800 229.766,398.965 228.812,399.300 228.700 C 399.694 228.569,399.800 222.528,399.800 200.287 C 399.800 178.223,399.691 171.931,399.300 171.540 C 399.009 171.249,398.800 170.018,398.800 168.596 C 398.800 167.067,398.580 165.862,398.213 165.376 C 397.859 164.909,397.620 163.685,397.613 162.300 C 397.606 161.035,397.442 160.000,397.250 160.000 C 397.057 160.000,396.793 159.055,396.664 157.900 C 396.247 154.187,395.713 151.838,395.251 151.684 C 395.003 151.601,394.800 150.738,394.800 149.767 C 394.800 148.795,394.620 148.000,394.400 148.000 C 394.180 148.000,394.000 147.370,394.000 146.600 C 394.000 145.830,393.820 145.200,393.600 145.200 C 393.380 145.200,393.200 144.493,393.200 143.629 C 393.200 142.764,392.930 141.787,392.600 141.457 C 392.270 141.127,392.000 140.304,392.000 139.629 C 392.000 138.953,391.820 138.400,391.600 138.400 C 391.380 138.400,391.200 137.770,391.200 137.000 C 391.200 136.230,391.020 135.600,390.800 135.600 C 390.580 135.600,390.400 135.054,390.400 134.387 C 390.400 133.679,390.151 133.079,389.800 132.945 C 389.430 132.803,389.200 132.195,389.200 131.357 C 389.200 130.611,389.020 130.000,388.800 130.000 C 388.580 130.000,388.400 129.370,388.400 128.600 C 388.400 127.830,388.220 127.200,388.000 127.200 C 387.780 127.200,387.600 126.840,387.600 126.400 C 387.600 125.956,387.333 125.600,387.000 125.600 C 386.581 125.600,386.400 125.178,386.400 124.200 C 386.400 123.430,386.220 122.800,386.000 122.800 C 385.780 122.800,385.600 122.350,385.600 121.800 C 385.600 121.250,385.420 120.800,385.200 120.800 C 384.980 120.800,384.800 120.363,384.800 119.829 C 384.800 119.294,384.530 118.587,384.200 118.257 C 383.870 117.927,383.600 117.284,383.600 116.829 C 383.600 116.373,383.420 116.000,383.200 116.000 C 382.980 116.000,382.800 115.640,382.800 115.200 C 382.800 114.760,382.620 114.400,382.400 114.400 C 382.180 114.400,382.000 114.034,382.000 113.587 C 382.000 113.141,381.730 112.671,381.400 112.545 C 381.070 112.418,380.800 111.884,380.800 111.357 C 380.800 110.831,380.620 110.400,380.400 110.400 C 380.180 110.400,380.000 110.040,380.000 109.600 C 380.000 109.160,379.820 108.800,379.600 108.800 C 379.380 108.800,379.200 108.434,379.200 107.987 C 379.200 107.541,378.930 107.071,378.600 106.945 C 378.270 106.818,378.000 106.284,378.000 105.757 C 378.000 105.231,377.820 104.800,377.600 104.800 C 377.380 104.800,377.200 104.440,377.200 104.000 C 377.200 103.560,377.020 103.200,376.800 103.200 C 376.580 103.200,376.400 102.834,376.400 102.387 C 376.400 101.941,376.130 101.471,375.800 101.345 C 375.470 101.218,375.200 100.673,375.200 100.134 C 375.200 99.582,375.025 99.261,374.800 99.400 C 374.580 99.536,374.400 99.367,374.400 99.024 C 374.400 98.681,374.220 98.400,374.000 98.400 C 373.780 98.400,373.600 98.034,373.600 97.587 C 373.600 97.141,373.330 96.671,373.000 96.545 C 372.670 96.418,372.400 95.974,372.400 95.557 C 372.400 95.141,372.241 94.800,372.046 94.800 C 371.851 94.800,371.392 94.170,371.027 93.400 C 370.661 92.630,370.191 92.000,369.981 92.000 C 369.772 92.000,369.600 91.730,369.600 91.400 C 369.600 91.070,369.420 90.800,369.200 90.800 C 368.980 90.800,368.800 90.506,368.800 90.146 C 368.800 89.786,368.350 89.075,367.800 88.565 C 367.250 88.055,366.800 87.360,366.800 87.019 C 366.800 86.679,366.648 86.400,366.463 86.400 C 366.278 86.400,365.787 85.770,365.372 85.000 C 364.957 84.230,364.479 83.600,364.309 83.600 C 364.139 83.600,364.000 83.330,364.000 83.000 C 364.000 82.670,363.820 82.400,363.600 82.400 C 363.380 82.400,363.200 82.106,363.200 81.746 C 363.200 81.386,362.782 80.704,362.271 80.231 C 361.760 79.757,361.090 78.801,360.782 78.105 C 360.474 77.409,359.812 76.621,359.311 76.353 C 358.810 76.084,358.400 75.525,358.400 75.109 C 358.400 74.693,358.258 74.440,358.085 74.548 C 357.912 74.655,357.536 74.215,357.251 73.571 C 356.966 72.927,356.478 72.400,356.166 72.400 C 355.855 72.400,355.600 72.212,355.600 71.982 C 355.600 71.439,353.761 69.600,353.218 69.600 C 352.988 69.600,352.800 69.407,352.800 69.171 C 352.800 68.936,352.575 68.492,352.300 68.185 C 351.104 66.852,350.800 66.407,350.800 65.993 C 350.800 65.751,350.620 65.664,350.400 65.800 C 350.180 65.936,350.000 65.853,350.000 65.616 C 350.000 64.942,332.887 48.000,332.206 48.000 C 331.873 48.000,331.600 47.820,331.600 47.600 C 331.600 47.380,331.330 47.200,331.000 47.200 C 330.670 47.200,330.400 47.012,330.400 46.782 C 330.400 46.239,328.561 44.400,328.018 44.400 C 327.788 44.400,327.600 44.158,327.600 43.863 C 327.600 43.567,326.790 42.909,325.800 42.400 C 324.810 41.891,324.000 41.310,324.000 41.109 C 324.000 40.595,323.202 39.901,321.803 39.200 C 321.145 38.870,320.224 38.195,319.757 37.700 C 319.290 37.205,318.614 36.800,318.254 36.800 C 317.894 36.800,317.600 36.620,317.600 36.400 C 317.600 36.180,317.330 36.000,317.000 36.000 C 316.670 36.000,316.400 35.730,316.400 35.400 C 316.400 35.067,316.044 34.800,315.600 34.800 C 315.160 34.800,314.800 34.620,314.800 34.400 C 314.800 34.180,314.530 34.000,314.200 34.000 C 313.870 34.000,313.600 33.820,313.600 33.600 C 313.600 33.380,313.321 33.200,312.981 33.200 C 312.640 33.200,311.945 32.750,311.435 32.200 C 310.925 31.650,310.214 31.200,309.854 31.200 C 309.494 31.200,309.200 31.020,309.200 30.800 C 309.200 30.580,308.949 30.400,308.643 30.400 C 308.336 30.400,307.982 30.130,307.855 29.800 C 307.729 29.470,307.349 29.200,307.013 29.200 C 306.676 29.200,306.400 29.020,306.400 28.800 C 306.400 28.580,306.130 28.400,305.800 28.400 C 305.470 28.400,305.200 28.220,305.200 28.000 C 305.200 27.780,304.859 27.600,304.443 27.600 C 304.026 27.600,303.582 27.330,303.455 27.000 C 303.329 26.670,302.899 26.400,302.501 26.400 C 302.103 26.400,301.517 26.040,301.200 25.600 C 300.883 25.160,300.232 24.800,299.754 24.800 C 299.277 24.800,298.782 24.530,298.655 24.200 C 298.529 23.870,298.059 23.600,297.613 23.600 C 297.166 23.600,296.800 23.420,296.800 23.200 C 296.800 22.980,296.440 22.800,296.000 22.800 C 295.560 22.800,295.200 22.620,295.200 22.400 C 295.200 22.180,294.769 22.000,294.243 22.000 C 293.716 22.000,293.182 21.730,293.055 21.400 C 292.929 21.070,292.459 20.800,292.013 20.800 C 291.566 20.800,291.200 20.620,291.200 20.400 C 291.200 20.180,290.840 20.000,290.400 20.000 C 289.960 20.000,289.600 19.820,289.600 19.600 C 289.600 19.380,289.169 19.200,288.643 19.200 C 288.116 19.200,287.582 18.930,287.455 18.600 C 287.329 18.270,286.859 18.000,286.413 18.000 C 285.966 18.000,285.600 17.820,285.600 17.600 C 285.600 17.380,285.328 17.200,284.995 17.200 C 284.386 17.200,284.055 17.064,281.738 15.857 C 281.044 15.496,280.189 15.200,279.838 15.200 C 279.487 15.200,279.200 15.020,279.200 14.800 C 279.200 14.580,278.750 14.400,278.200 14.400 C 277.650 14.400,277.200 14.220,277.200 14.000 C 277.200 13.780,276.589 13.600,275.843 13.600 C 275.005 13.600,274.397 13.370,274.255 13.000 C 274.129 12.670,273.749 12.400,273.413 12.400 C 273.076 12.400,272.800 12.220,272.800 12.000 C 272.800 11.780,272.170 11.600,271.400 11.600 C 270.630 11.600,270.000 11.420,270.000 11.200 C 270.000 10.980,269.447 10.800,268.771 10.800 C 268.096 10.800,267.273 10.530,266.943 10.200 C 266.613 9.870,265.906 9.600,265.371 9.600 C 264.837 9.600,264.400 9.420,264.400 9.200 C 264.400 8.980,263.770 8.800,263.000 8.800 C 262.230 8.800,261.600 8.620,261.600 8.400 C 261.600 8.180,260.970 8.000,260.200 8.000 C 259.430 8.000,258.800 7.831,258.800 7.625 C 258.800 7.418,257.988 7.127,256.995 6.978 C 256.002 6.829,255.092 6.548,254.971 6.354 C 254.851 6.159,254.133 6.000,253.376 6.000 C 252.619 6.000,252.000 5.820,252.000 5.600 C 252.000 5.380,251.190 5.200,250.200 5.200 C 249.210 5.200,248.400 5.020,248.400 4.800 C 248.400 4.580,247.584 4.400,246.587 4.400 C 245.345 4.400,244.702 4.211,244.545 3.800 C 244.379 3.369,243.706 3.200,242.157 3.200 C 240.971 3.200,240.000 3.020,240.000 2.800 C 240.000 2.578,238.941 2.400,237.624 2.400 C 236.317 2.400,235.136 2.220,235.000 2.000 C 234.864 1.780,233.478 1.600,231.920 1.600 C 229.686 1.600,228.980 1.452,228.577 0.901 C 228.077 0.216,188.465 -0.246,175.100 0.276 M188.509 31.934 C 194.433 34.629,197.003 41.079,194.572 47.153 C 193.350 50.209,190.585 52.119,170.489 63.800 L 151.220 75.000 151.210 196.888 L 151.200 318.775 153.408 320.188 C 154.622 320.964,155.711 321.600,155.827 321.600 C 155.943 321.600,157.023 322.230,158.227 323.000 C 159.431 323.770,160.511 324.400,160.627 324.400 C 160.743 324.400,161.823 325.030,163.027 325.800 C 164.231 326.570,165.311 327.200,165.427 327.200 C 165.543 327.200,166.623 327.830,167.827 328.600 C 169.031 329.370,170.111 330.000,170.227 330.000 C 170.343 330.000,171.423 330.630,172.627 331.400 C 173.831 332.170,174.911 332.800,175.027 332.800 C 175.143 332.800,176.223 333.430,177.427 334.200 C 178.631 334.970,179.706 335.600,179.816 335.600 C 179.926 335.600,180.729 336.050,181.600 336.600 C 183.690 337.920,184.423 337.865,187.027 336.200 C 188.231 335.430,189.281 334.800,189.361 334.800 C 189.442 334.800,193.509 332.460,198.400 329.600 C 203.291 326.740,207.358 324.400,207.439 324.400 C 207.519 324.400,208.569 323.770,209.773 323.000 C 210.977 322.230,212.057 321.600,212.173 321.600 C 212.289 321.600,213.369 320.970,214.573 320.200 C 215.777 319.430,216.864 318.800,216.989 318.800 C 217.115 318.800,217.888 318.377,218.709 317.861 C 219.529 317.344,221.460 316.195,223.000 315.306 C 229.121 311.775,249.344 300.070,255.000 296.784 L 261.000 293.299 261.103 255.950 C 261.160 235.407,261.116 218.364,261.007 218.076 C 260.813 217.569,259.770 218.051,254.088 221.270 C 253.269 221.734,251.790 222.562,250.800 223.110 C 249.810 223.658,248.820 224.244,248.600 224.411 C 248.213 224.705,247.715 224.988,243.400 227.374 C 239.691 229.424,240.056 226.700,239.920 253.344 L 239.800 277.000 238.766 279.201 C 234.115 289.099,219.819 287.395,216.942 276.600 C 216.275 274.095,216.162 226.904,216.814 222.887 C 217.953 215.868,219.975 213.846,233.600 206.101 C 234.370 205.664,239.950 202.459,246.000 198.980 C 252.050 195.501,259.790 191.070,263.200 189.133 L 269.400 185.611 272.600 185.612 C 277.931 185.614,282.402 188.786,283.917 193.640 C 284.915 196.838,284.580 299.328,283.560 302.658 C 281.942 307.943,281.014 308.692,263.726 318.665 C 262.484 319.382,255.682 323.336,245.600 329.203 C 242.850 330.803,239.970 332.466,239.200 332.899 C 238.430 333.331,237.620 333.822,237.400 333.989 C 237.180 334.156,236.100 334.788,235.000 335.393 C 233.900 335.998,224.180 341.641,213.400 347.932 C 182.379 366.036,184.803 365.582,168.673 356.307 C 130.822 334.542,130.803 334.529,128.790 328.946 L 127.800 326.200 127.800 196.600 L 127.800 67.000 128.730 64.697 C 130.746 59.705,131.686 59.054,162.500 41.323 C 163.765 40.596,165.880 39.370,167.200 38.600 C 177.297 32.710,178.705 31.948,180.584 31.360 C 183.311 30.506,185.760 30.683,188.509 31.934 M188.800 83.542 C 192.045 85.214,193.990 87.523,195.084 91.000 C 195.823 93.348,195.823 300.652,195.084 303.000 C 191.691 313.784,176.664 314.563,173.100 304.140 C 172.048 301.063,172.009 92.627,173.060 89.908 C 175.506 83.582,182.997 80.552,188.800 83.542 " stroke="none" fill="#5492b2" fill-rule="evenodd"></path></g></svg>