<svg id="svg" version="1.1" xmlns="http://www.w3.org/2000/svg" xmlns:xlink="http://www.w3.org/1999/xlink" width="400" height="190.3448275862069" viewBox="0, 0, 400,190.3448275862069"><g id="svgg"><path id="path0" d="M53.498 25.070 C 53.341 25.136,52.948 25.391,52.625 25.636 C 52.301 25.881,51.744 26.179,51.387 26.298 C 51.030 26.418,50.524 26.706,50.262 26.940 C 50.000 27.173,49.529 27.451,49.215 27.557 C 48.901 27.663,48.185 28.060,47.625 28.439 C 47.065 28.819,46.489 29.129,46.346 29.129 C 46.203 29.129,45.805 29.374,45.461 29.673 C 45.117 29.972,44.528 30.317,44.153 30.439 C 43.777 30.561,43.282 30.837,43.051 31.051 C 42.821 31.266,42.254 31.609,41.791 31.813 C 41.328 32.018,40.894 32.274,40.828 32.381 C 40.762 32.488,40.266 32.774,39.725 33.016 C 38.698 33.477,36.973 35.027,36.349 36.051 C 35.992 36.636,35.984 37.623,35.984 80.738 L 35.983 124.826 36.856 125.954 C 37.336 126.575,37.828 127.118,37.948 127.161 C 38.068 127.204,38.316 127.430,38.499 127.663 C 38.683 127.896,39.045 128.140,39.305 128.205 C 39.565 128.270,40.159 128.582,40.626 128.897 C 41.093 129.212,41.775 129.595,42.143 129.748 C 42.510 129.902,42.869 130.123,42.941 130.239 C 43.013 130.355,43.597 130.686,44.239 130.974 C 44.882 131.262,45.514 131.626,45.644 131.783 C 45.774 131.940,46.245 132.226,46.691 132.419 C 47.137 132.611,47.715 132.953,47.977 133.179 C 48.239 133.405,48.753 133.708,49.119 133.852 C 49.486 133.995,50.145 134.355,50.584 134.650 C 51.023 134.945,51.666 135.281,52.012 135.397 C 52.358 135.513,52.796 135.742,52.986 135.906 C 53.811 136.621,55.624 136.445,57.547 135.464 C 60.412 134.001,61.345 133.482,61.723 133.140 C 61.919 132.963,62.527 132.588,63.072 132.307 C 65.544 131.037,66.363 130.575,66.540 130.349 C 66.644 130.216,67.073 129.970,67.492 129.804 C 67.911 129.638,68.712 129.193,69.272 128.816 C 69.832 128.438,70.399 128.129,70.531 128.129 C 70.663 128.129,71.094 127.872,71.490 127.558 C 71.885 127.244,72.293 126.987,72.396 126.987 C 72.500 126.987,73.097 126.644,73.724 126.226 C 74.352 125.807,75.013 125.464,75.194 125.464 C 75.376 125.464,75.687 125.283,75.887 125.061 C 76.086 124.839,76.720 124.449,77.295 124.195 C 77.869 123.940,78.512 123.570,78.722 123.373 C 78.933 123.176,79.503 122.845,79.989 122.637 C 80.474 122.429,80.928 122.169,80.996 122.058 C 81.064 121.948,81.509 121.686,81.984 121.475 C 82.460 121.265,83.105 120.877,83.419 120.613 C 83.733 120.349,84.218 120.077,84.498 120.009 C 85.791 119.694,88.255 117.259,88.418 116.135 C 88.487 115.664,88.629 114.936,88.734 114.517 C 88.942 113.689,88.840 93.500,88.582 84.341 C 88.417 78.501,88.393 78.403,86.933 77.500 C 85.746 76.767,83.065 77.006,81.771 77.961 C 81.456 78.192,80.792 78.561,80.295 78.780 C 79.798 79.000,79.390 79.248,79.389 79.332 C 79.387 79.417,79.023 79.655,78.579 79.862 C 78.136 80.069,77.356 80.518,76.847 80.861 C 76.338 81.204,75.809 81.485,75.671 81.485 C 75.534 81.485,75.180 81.687,74.884 81.934 C 74.588 82.181,73.932 82.564,73.426 82.787 C 72.920 83.009,72.249 83.407,71.936 83.671 C 71.622 83.935,71.212 84.150,71.025 84.150 C 70.838 84.150,70.352 84.416,69.945 84.740 C 69.538 85.064,68.948 85.463,68.634 85.625 C 67.683 86.116,66.629 87.347,66.338 88.305 C 66.008 89.392,65.944 106.342,66.264 107.731 C 66.906 110.516,70.680 111.409,72.661 109.246 C 73.623 108.195,73.734 107.262,73.853 99.256 L 73.965 91.800 74.527 91.358 C 75.492 90.599,76.410 90.012,77.201 89.648 C 77.620 89.456,78.193 89.113,78.475 88.885 C 78.756 88.658,79.382 88.413,79.864 88.339 C 81.377 88.110,81.295 87.392,81.295 100.750 L 81.295 112.506 80.261 113.269 C 79.693 113.689,79.178 114.113,79.117 114.212 C 79.056 114.311,78.743 114.450,78.423 114.520 C 78.102 114.591,77.567 114.883,77.235 115.169 C 76.902 115.455,76.250 115.838,75.786 116.020 C 75.322 116.202,74.694 116.559,74.391 116.814 C 74.088 117.069,73.740 117.278,73.617 117.278 C 73.494 117.278,72.889 117.621,72.273 118.039 C 71.657 118.458,71.041 118.801,70.905 118.801 C 70.768 118.801,70.385 119.049,70.053 119.352 C 69.721 119.655,69.221 119.949,68.942 120.005 C 68.663 120.061,68.109 120.365,67.712 120.681 C 67.315 120.996,66.674 121.355,66.289 121.478 C 65.903 121.602,65.374 121.890,65.112 122.120 C 64.850 122.350,64.272 122.696,63.827 122.888 C 63.382 123.080,63.018 123.298,63.018 123.373 C 63.018 123.447,62.418 123.795,61.685 124.145 C 60.952 124.495,60.352 124.849,60.352 124.933 C 60.352 125.016,59.804 125.343,59.134 125.659 C 58.464 125.976,57.811 126.361,57.683 126.516 C 57.555 126.670,57.377 126.797,57.288 126.797 C 57.198 126.797,56.564 127.054,55.878 127.368 C 54.438 128.027,54.386 128.035,54.068 127.651 C 53.936 127.493,53.438 127.191,52.960 126.979 C 52.482 126.768,51.820 126.388,51.488 126.135 C 51.156 125.882,50.665 125.620,50.397 125.552 C 50.129 125.485,49.758 125.263,49.574 125.059 C 49.389 124.855,48.865 124.524,48.409 124.322 C 47.953 124.120,47.309 123.759,46.978 123.520 C 46.646 123.280,46.029 122.946,45.606 122.778 C 45.172 122.605,44.648 122.196,44.406 121.843 L 43.976 121.215 44.025 80.612 L 44.074 40.009 44.475 39.471 C 44.695 39.176,45.215 38.805,45.631 38.648 C 46.048 38.491,46.666 38.127,47.007 37.839 C 47.347 37.551,47.728 37.316,47.852 37.316 C 47.977 37.316,48.416 37.080,48.829 36.792 C 49.620 36.239,50.760 35.610,52.642 34.690 C 53.270 34.383,53.944 33.952,54.139 33.732 C 54.335 33.513,54.919 33.192,55.438 33.020 C 55.957 32.848,56.428 32.584,56.486 32.434 C 56.544 32.284,56.837 32.034,57.138 31.878 C 58.352 31.250,58.898 29.276,58.349 27.498 C 57.803 25.726,55.127 24.387,53.498 25.070 M265.683 25.163 C 265.474 25.279,265.131 25.519,264.921 25.697 C 264.712 25.875,264.241 26.136,263.874 26.276 C 263.508 26.416,262.964 26.698,262.666 26.903 C 262.369 27.109,261.709 27.501,261.200 27.774 C 260.692 28.048,259.779 28.541,259.171 28.870 C 258.564 29.199,257.904 29.649,257.705 29.870 C 257.505 30.091,257.193 30.271,257.010 30.271 C 256.827 30.271,256.251 30.559,255.729 30.910 C 255.207 31.261,254.384 31.740,253.901 31.974 C 253.418 32.208,253.022 32.474,253.022 32.565 C 253.022 32.656,252.660 32.840,252.216 32.973 C 251.629 33.148,251.014 33.614,249.950 34.688 L 248.489 36.163 248.359 37.929 C 248.083 41.679,248.326 55.847,248.676 56.381 C 250.309 58.872,253.646 59.243,255.855 57.179 C 256.098 56.952,256.524 56.710,256.801 56.641 C 257.079 56.573,257.482 56.352,257.697 56.151 C 257.913 55.950,258.598 55.521,259.220 55.197 C 261.331 54.099,262.064 53.686,262.578 53.309 C 262.860 53.102,263.545 52.729,264.101 52.481 C 264.657 52.233,265.275 51.847,265.475 51.622 C 265.674 51.397,265.983 51.214,266.162 51.214 C 266.340 51.214,266.820 50.983,267.227 50.700 C 267.634 50.418,268.392 49.963,268.910 49.690 C 270.880 48.652,271.579 46.223,270.525 44.077 C 269.953 42.913,267.343 41.796,266.482 42.347 C 266.252 42.495,265.678 42.716,265.207 42.838 C 264.736 42.961,264.178 43.221,263.967 43.416 C 263.610 43.746,262.958 44.119,260.543 45.374 C 260.019 45.646,259.459 45.997,259.297 46.153 C 258.652 46.778,257.335 47.217,256.925 46.945 C 256.568 46.707,256.545 46.480,256.545 43.256 C 256.545 39.357,256.644 39.081,258.218 38.609 C 258.628 38.487,259.087 38.196,259.239 37.964 C 259.391 37.732,259.747 37.486,260.029 37.418 C 260.312 37.350,260.973 37.011,261.499 36.665 C 262.026 36.319,262.647 35.975,262.881 35.901 C 263.114 35.827,263.540 35.574,263.828 35.338 C 264.115 35.103,264.650 34.794,265.017 34.651 C 265.383 34.508,265.983 34.165,266.349 33.889 C 266.716 33.612,267.316 33.271,267.682 33.131 C 268.049 32.991,268.563 32.686,268.824 32.454 C 269.086 32.221,269.489 31.934,269.720 31.816 C 270.260 31.538,271.109 29.849,271.109 29.052 C 271.109 26.307,267.845 23.967,265.683 25.163 M53.787 42.523 C 53.330 42.651,52.669 43.088,52.121 43.624 L 51.214 44.512 51.214 80.774 L 51.214 117.035 52.138 117.900 C 53.884 119.532,56.825 119.339,57.974 117.516 L 58.544 116.611 58.544 80.723 L 58.544 44.836 58.026 43.971 C 57.292 42.745,55.355 42.083,53.787 42.523 M342.313 42.701 C 341.159 43.094,341.044 43.187,340.600 44.074 L 340.124 45.026 339.983 54.260 C 339.905 59.338,339.793 65.372,339.734 67.668 L 339.626 71.843 340.137 72.999 C 341.362 75.776,344.003 76.848,345.993 75.376 C 346.319 75.136,347.080 74.699,347.686 74.406 C 348.291 74.112,348.786 73.794,348.786 73.699 C 348.786 73.603,349.160 73.397,349.616 73.242 C 350.072 73.086,350.813 72.693,351.263 72.367 C 351.712 72.042,352.180 71.775,352.303 71.775 C 352.425 71.775,352.814 71.518,353.166 71.203 C 353.518 70.889,354.085 70.555,354.426 70.461 C 354.766 70.367,355.372 70.037,355.771 69.727 C 356.170 69.418,356.797 69.053,357.163 68.916 C 357.530 68.780,358.001 68.520,358.210 68.340 C 358.420 68.160,358.977 67.843,359.448 67.635 C 362.775 66.166,363.760 62.918,361.525 60.786 C 359.957 59.292,358.588 58.986,357.319 59.848 C 356.956 60.094,356.265 60.446,355.783 60.630 C 355.301 60.814,354.742 61.118,354.541 61.304 C 354.086 61.729,353.081 62.256,352.728 62.256 C 352.582 62.256,352.300 62.435,352.102 62.654 C 351.904 62.873,351.441 63.202,351.073 63.384 C 350.705 63.567,349.945 64.006,349.384 64.361 L 348.363 65.005 348.003 64.561 C 347.662 64.140,347.644 63.641,347.644 54.455 L 347.644 44.793 346.930 43.908 C 345.701 42.384,344.310 42.020,342.313 42.701 M296.019 42.804 C 295.530 42.979,294.973 43.262,294.781 43.432 C 294.589 43.602,294.046 43.924,293.574 44.147 C 293.103 44.369,292.423 44.768,292.063 45.032 C 291.702 45.297,291.188 45.566,290.920 45.631 C 290.652 45.697,290.152 45.994,289.808 46.292 C 289.464 46.591,289.065 46.835,288.923 46.835 C 288.780 46.835,288.208 47.141,287.651 47.516 C 287.095 47.890,286.379 48.306,286.061 48.441 C 285.743 48.576,285.320 48.869,285.120 49.093 C 284.921 49.317,284.612 49.500,284.435 49.500 C 284.257 49.500,283.549 49.864,282.862 50.309 C 282.174 50.754,281.369 51.254,281.072 51.419 C 280.709 51.622,280.269 52.248,279.724 53.338 L 278.915 54.955 278.915 102.406 L 278.915 149.857 279.603 151.268 C 280.423 152.949,280.419 152.946,281.851 153.361 C 283.224 153.758,284.699 153.520,285.418 152.785 C 285.663 152.534,286.078 152.108,286.340 151.839 L 286.816 151.349 286.911 104.205 C 287.004 58.374,287.016 57.056,287.363 56.851 C 287.559 56.735,288.017 56.444,288.380 56.205 C 288.743 55.966,289.535 55.521,290.141 55.215 C 290.746 54.909,291.289 54.537,291.346 54.388 C 291.403 54.239,291.747 54.062,292.110 53.994 C 292.473 53.926,293.144 53.588,293.601 53.244 C 294.058 52.901,294.731 52.503,295.098 52.362 C 295.464 52.221,295.983 51.904,296.250 51.659 C 296.518 51.414,296.865 51.214,297.021 51.214 C 297.177 51.214,297.892 50.828,298.609 50.357 C 299.327 49.886,300.029 49.500,300.171 49.500 C 300.313 49.500,300.428 49.429,300.428 49.341 C 300.428 49.254,300.736 48.787,301.112 48.305 C 303.636 45.065,300.165 41.317,296.019 42.804 M311.506 51.212 C 311.159 51.294,310.688 51.528,310.459 51.733 C 310.230 51.937,309.761 52.215,309.416 52.352 C 309.072 52.488,308.472 52.827,308.084 53.105 C 307.695 53.384,307.078 53.730,306.711 53.875 C 306.345 54.020,305.803 54.338,305.507 54.580 C 305.211 54.823,304.859 55.021,304.726 55.021 C 304.592 55.021,303.896 55.407,303.179 55.878 C 302.461 56.349,301.770 56.735,301.642 56.735 C 301.514 56.735,301.167 56.933,300.871 57.176 C 300.575 57.419,300.052 57.730,299.709 57.868 C 299.366 58.005,298.724 58.406,298.282 58.757 C 297.839 59.109,297.346 59.397,297.186 59.398 C 296.846 59.401,294.907 61.195,294.907 61.508 C 294.907 61.625,294.736 61.938,294.526 62.204 C 294.154 62.678,294.146 62.976,294.146 76.581 L 294.146 90.473 294.574 91.013 C 294.810 91.309,295.151 91.764,295.333 92.024 C 295.514 92.283,295.915 92.551,296.224 92.619 C 296.532 92.687,296.887 92.865,297.012 93.016 C 297.308 93.373,298.352 93.365,299.033 93.000 C 299.329 92.840,299.804 92.629,300.088 92.531 C 300.397 92.424,300.895 91.915,301.326 91.266 L 302.047 90.181 302.142 77.952 C 302.244 64.800,302.234 64.921,303.199 64.921 C 303.330 64.921,303.855 64.639,304.368 64.295 C 304.880 63.950,305.596 63.550,305.958 63.407 C 306.320 63.264,306.787 62.995,306.997 62.809 C 308.754 61.253,308.996 61.833,308.996 67.605 C 308.996 73.015,309.074 73.406,310.426 74.739 C 312.207 76.494,314.154 76.449,315.723 74.616 C 317.065 73.049,317.008 73.578,316.950 63.168 L 316.897 53.784 316.035 52.547 C 315.398 51.632,315.027 51.280,314.608 51.190 C 313.823 51.022,312.262 51.033,311.506 51.212 M327.350 51.143 C 326.698 51.289,325.615 52.567,325.192 53.689 C 324.678 55.055,324.557 122.238,325.066 124.191 C 325.451 125.668,326.052 126.747,326.670 127.066 C 326.964 127.218,327.319 127.480,327.459 127.648 C 327.598 127.816,328.121 128.130,328.621 128.345 C 329.121 128.560,329.672 128.892,329.844 129.083 C 330.017 129.274,330.623 129.619,331.191 129.849 C 331.758 130.079,332.223 130.340,332.223 130.427 C 332.223 130.515,332.607 130.757,333.076 130.964 C 333.546 131.172,334.210 131.553,334.552 131.811 C 334.894 132.069,335.513 132.421,335.928 132.592 C 336.343 132.763,336.818 133.026,336.983 133.175 C 337.148 133.325,337.751 133.695,338.323 133.998 C 338.894 134.302,340.127 134.956,341.062 135.452 C 342.936 136.446,345.011 136.647,345.866 135.916 C 346.059 135.752,346.516 135.499,346.882 135.355 C 347.249 135.210,347.906 134.852,348.343 134.558 C 348.780 134.264,349.448 133.895,349.827 133.736 C 350.206 133.578,350.561 133.332,350.615 133.190 C 350.670 133.048,351.116 132.780,351.607 132.596 C 352.097 132.411,352.799 132.031,353.165 131.752 C 353.532 131.472,354.131 131.129,354.498 130.988 C 354.864 130.848,355.337 130.580,355.548 130.392 C 355.758 130.205,356.272 129.910,356.690 129.738 C 357.107 129.566,357.711 129.227,358.032 128.985 C 358.353 128.743,358.910 128.422,359.271 128.271 C 360.054 127.944,362.224 125.858,362.543 125.125 C 362.800 124.537,362.997 109.227,362.779 106.851 C 362.497 103.788,359.858 102.059,357.235 103.219 C 356.199 103.677,356.089 103.795,355.323 105.282 L 354.783 106.330 354.688 113.885 C 354.581 122.370,354.610 122.205,353.129 122.718 C 352.752 122.849,351.997 123.263,351.450 123.639 C 350.904 124.014,350.341 124.322,350.199 124.322 C 350.058 124.322,349.649 124.579,349.291 124.893 C 348.934 125.207,348.543 125.464,348.423 125.464 C 348.304 125.464,347.663 125.807,347.000 126.226 C 346.337 126.644,345.708 126.987,345.603 126.987 C 345.498 126.987,345.102 127.198,344.722 127.456 L 344.032 127.924 342.459 127.156 C 340.318 126.110,338.885 125.330,338.522 125.011 C 338.356 124.865,337.749 124.510,337.173 124.221 C 336.597 123.933,335.869 123.508,335.554 123.278 C 335.240 123.048,334.715 122.754,334.387 122.625 C 334.059 122.496,333.525 122.020,333.200 121.568 L 332.610 120.746 332.559 86.934 L 332.508 53.122 331.527 52.140 L 330.545 51.159 329.147 51.106 C 328.378 51.077,327.569 51.094,327.350 51.143 M114.674 59.526 C 114.060 59.656,112.557 61.053,112.129 61.891 C 111.703 62.726,111.530 114.859,111.948 116.326 C 112.875 119.575,117.549 119.969,119.039 116.922 L 119.657 115.659 119.657 89.291 L 119.657 62.922 119.086 61.888 C 118.149 60.190,116.276 59.187,114.674 59.526 M159.353 59.748 C 158.986 59.951,158.229 60.341,157.670 60.613 C 157.111 60.885,156.398 61.323,156.085 61.587 C 155.772 61.850,155.287 62.122,155.007 62.190 C 154.727 62.258,154.274 62.500,154.000 62.727 C 153.726 62.955,153.212 63.258,152.857 63.402 C 152.503 63.545,151.797 63.946,151.288 64.292 C 150.778 64.638,150.250 64.921,150.112 64.921 C 149.975 64.921,149.606 65.137,149.292 65.401 C 148.979 65.665,148.345 66.048,147.884 66.252 C 147.423 66.456,146.718 66.883,146.319 67.200 C 145.919 67.518,145.487 67.777,145.359 67.777 C 144.842 67.777,142.512 69.862,142.228 70.579 C 141.989 71.182,141.926 73.249,141.842 83.294 C 141.731 96.623,141.816 95.839,140.411 96.511 C 139.991 96.711,139.353 97.097,138.992 97.367 C 138.631 97.637,138.234 97.858,138.109 97.858 C 137.984 97.858,137.465 98.141,136.956 98.488 C 136.447 98.834,135.749 99.231,135.406 99.370 C 135.062 99.509,134.472 99.868,134.094 100.168 C 133.717 100.468,133.301 100.714,133.170 100.714 C 133.039 100.714,132.515 101.001,132.006 101.351 C 131.497 101.701,130.759 102.104,130.366 102.246 C 129.974 102.388,129.653 102.571,129.653 102.654 C 129.653 102.736,129.295 103.029,128.858 103.305 C 127.221 104.339,126.987 104.772,126.987 106.781 L 126.987 108.304 127.941 109.283 C 129.278 110.656,132.351 110.868,133.270 109.651 C 133.428 109.441,134.566 108.901,134.849 108.901 C 134.995 108.901,135.278 108.720,135.477 108.499 C 135.815 108.125,136.704 107.596,138.975 106.421 C 139.485 106.157,140.063 105.796,140.258 105.619 C 140.454 105.442,140.951 105.157,141.364 104.984 C 141.777 104.812,142.467 104.428,142.898 104.131 C 143.330 103.834,143.904 103.536,144.174 103.468 C 144.444 103.401,144.813 103.182,144.993 102.982 C 145.174 102.783,145.759 102.409,146.292 102.153 C 147.984 101.340,148.627 100.594,149.266 98.703 L 149.833 97.025 149.833 85.997 C 149.833 73.328,149.771 73.805,151.492 73.219 C 151.952 73.062,152.645 72.695,153.032 72.402 C 153.751 71.859,155.018 71.186,155.997 70.826 C 157.138 70.406,157.069 68.774,157.060 96.025 L 157.052 120.990 156.441 121.676 C 156.105 122.054,155.403 122.550,154.881 122.780 C 154.359 123.010,153.759 123.359,153.548 123.557 C 153.338 123.754,152.737 124.099,152.213 124.323 C 151.690 124.546,151.125 124.853,150.959 125.003 C 150.654 125.280,149.416 125.976,147.615 126.884 C 147.076 127.156,146.532 127.502,146.406 127.653 C 146.281 127.805,145.737 128.143,145.198 128.406 C 143.483 129.241,142.474 130.063,142.241 130.817 C 141.861 132.043,142.096 134.983,142.573 134.983 C 142.654 134.983,143.092 135.301,143.545 135.689 C 144.499 136.506,146.579 136.728,147.300 136.091 C 147.489 135.924,148.115 135.592,148.691 135.354 C 149.267 135.116,149.952 134.735,150.214 134.507 C 150.476 134.279,150.980 133.978,151.334 133.838 C 151.688 133.698,152.202 133.398,152.477 133.172 C 152.751 132.945,153.232 132.671,153.546 132.562 C 153.860 132.453,154.575 132.054,155.136 131.675 C 155.696 131.296,156.268 130.985,156.406 130.985 C 156.545 130.985,156.900 130.783,157.196 130.536 C 157.492 130.290,158.162 129.900,158.684 129.670 C 159.206 129.441,159.806 129.096,160.017 128.903 C 160.227 128.710,160.754 128.384,161.187 128.179 C 162.336 127.632,163.720 126.416,164.032 125.679 C 164.347 124.932,164.447 62.470,164.135 61.650 C 163.521 60.040,160.784 58.951,159.353 59.748 M190.361 59.575 C 190.086 59.663,189.531 59.960,189.127 60.234 C 188.724 60.509,188.298 60.733,188.180 60.733 C 188.063 60.733,187.604 60.997,187.159 61.319 C 186.714 61.641,185.981 62.063,185.529 62.257 C 185.078 62.450,184.637 62.728,184.549 62.874 C 184.460 63.020,184.004 63.291,183.535 63.476 C 183.065 63.661,182.342 64.061,181.927 64.367 C 181.512 64.672,181.029 64.921,180.855 64.921 C 180.681 64.921,180.211 65.181,179.812 65.499 C 179.412 65.816,178.716 66.239,178.265 66.438 C 177.815 66.638,177.158 67.021,176.806 67.289 C 176.454 67.558,176.057 67.777,175.924 67.777 C 175.611 67.777,173.441 69.655,173.441 69.926 C 173.441 70.039,173.248 70.338,173.013 70.588 L 172.584 71.044 172.584 98.016 L 172.584 124.988 173.251 125.914 C 174.200 127.232,176.878 128.312,177.341 127.563 C 177.404 127.462,177.794 127.287,178.207 127.176 C 178.819 127.011,179.093 126.770,179.675 125.885 L 180.390 124.798 180.485 99.857 C 180.593 71.763,180.448 74.121,182.119 73.298 C 182.651 73.037,183.336 72.640,183.642 72.416 C 183.948 72.192,184.540 71.867,184.957 71.693 C 185.374 71.519,185.888 71.216,186.099 71.020 C 186.310 70.824,186.847 70.519,187.292 70.342 C 187.737 70.165,188.101 69.958,188.101 69.881 C 188.101 69.805,188.743 69.429,189.529 69.046 C 190.314 68.662,190.957 68.270,190.957 68.173 C 190.957 68.076,191.244 67.902,191.594 67.787 C 192.481 67.494,194.574 65.903,194.575 65.522 C 194.575 65.349,194.746 64.927,194.955 64.584 C 196.330 62.329,193.019 58.719,190.361 59.575 M266.220 59.640 C 265.326 59.989,264.043 61.122,263.750 61.822 C 263.443 62.555,263.364 107.023,263.668 108.083 C 264.610 111.369,269.981 111.057,270.901 107.663 C 271.043 107.137,271.107 100.101,271.108 84.888 L 271.109 62.875 270.656 61.851 C 269.897 60.135,267.727 59.053,266.220 59.640 M220.153 59.780 C 219.928 59.871,219.691 60.030,219.627 60.134 C 219.563 60.238,219.080 60.466,218.554 60.640 C 218.029 60.815,217.339 61.176,217.023 61.443 C 216.706 61.710,216.173 62.023,215.838 62.140 C 215.260 62.341,214.556 62.749,212.476 64.088 C 211.969 64.414,211.282 64.776,210.951 64.892 C 210.619 65.007,210.093 65.316,209.782 65.578 C 209.471 65.839,208.856 66.213,208.416 66.408 C 207.976 66.604,207.501 66.901,207.362 67.070 C 207.223 67.239,206.795 67.478,206.410 67.601 C 206.026 67.724,205.540 67.979,205.331 68.169 C 205.121 68.358,204.522 68.696,203.998 68.919 C 203.475 69.142,202.832 69.526,202.570 69.772 C 202.308 70.018,201.733 70.315,201.292 70.432 C 200.851 70.548,200.380 70.798,200.245 70.985 C 199.975 71.361,198.555 72.209,196.716 73.092 C 196.061 73.406,195.526 73.742,195.526 73.838 C 195.526 73.934,195.088 74.202,194.552 74.432 C 194.016 74.663,193.232 75.101,192.810 75.407 C 192.387 75.713,191.902 75.964,191.732 75.964 C 191.562 75.964,190.954 76.308,190.380 76.729 C 187.923 78.532,187.720 78.836,187.720 80.718 L 187.720 82.206 188.663 83.226 L 189.605 84.246 191.471 84.241 C 193.280 84.237,194.574 83.890,194.574 83.410 C 194.574 83.322,194.963 83.102,195.438 82.920 C 195.914 82.739,196.550 82.382,196.852 82.128 C 197.154 81.874,197.686 81.568,198.034 81.448 C 198.382 81.329,198.924 81.041,199.238 80.808 C 199.553 80.576,200.259 80.160,200.809 79.885 C 201.359 79.610,201.809 79.308,201.809 79.215 C 201.809 79.122,202.201 78.912,202.681 78.749 C 203.160 78.585,203.849 78.192,204.210 77.874 C 204.572 77.556,204.984 77.297,205.126 77.297 C 205.267 77.297,205.819 76.997,206.352 76.630 C 206.885 76.264,207.445 75.964,207.596 75.964 C 207.748 75.964,208.128 75.748,208.441 75.485 C 208.755 75.221,209.468 74.803,210.027 74.555 C 210.585 74.307,211.198 73.932,211.388 73.720 C 211.578 73.509,212.033 73.280,212.398 73.211 C 212.764 73.143,213.241 72.909,213.459 72.691 C 213.928 72.221,215.594 71.208,216.988 70.544 C 217.535 70.284,218.149 69.904,218.352 69.702 C 218.555 69.499,219.242 69.142,219.879 68.910 C 220.516 68.678,221.038 68.414,221.038 68.323 C 221.038 68.110,221.746 68.108,221.877 68.321 C 221.933 68.410,222.496 68.672,223.129 68.903 C 223.762 69.134,224.430 69.484,224.613 69.680 C 224.796 69.876,225.342 70.207,225.826 70.414 C 226.311 70.622,226.770 70.893,226.847 71.018 C 226.923 71.142,227.383 71.427,227.867 71.652 C 228.352 71.877,229.005 72.244,229.319 72.467 C 229.634 72.690,230.276 73.054,230.747 73.275 C 231.369 73.567,231.722 73.899,232.033 74.487 L 232.462 75.297 232.453 98.049 L 232.444 120.800 232.009 121.561 C 231.703 122.097,231.296 122.455,230.637 122.768 C 230.122 123.013,229.529 123.368,229.319 123.556 C 228.438 124.347,226.796 124.936,226.229 124.665 L 225.702 124.412 225.603 102.615 C 225.498 79.535,225.528 80.247,224.614 78.604 C 223.615 76.807,220.217 76.516,218.274 78.061 C 217.880 78.373,217.420 78.629,217.251 78.629 C 217.082 78.629,216.521 78.929,216.006 79.296 C 215.490 79.662,214.977 79.962,214.864 79.962 C 214.752 79.963,214.155 80.305,213.539 80.724 C 212.923 81.143,212.308 81.485,212.174 81.485 C 212.039 81.485,211.672 81.701,211.359 81.964 C 211.045 82.228,210.332 82.646,209.773 82.894 C 209.215 83.142,208.595 83.526,208.395 83.747 C 208.196 83.969,207.891 84.150,207.719 84.150 C 207.547 84.150,206.878 84.493,206.234 84.912 C 205.589 85.331,205.013 85.673,204.954 85.673 C 204.894 85.673,204.410 85.973,203.877 86.340 C 203.344 86.706,202.753 87.006,202.563 87.006 C 202.374 87.006,201.976 87.209,201.680 87.457 C 201.384 87.705,200.698 88.139,200.155 88.423 C 199.612 88.706,199.069 89.055,198.950 89.200 C 198.830 89.344,198.418 89.562,198.033 89.685 C 197.649 89.808,197.163 90.060,196.954 90.245 C 196.744 90.429,196.188 90.773,195.716 91.009 C 195.245 91.244,194.620 91.637,194.327 91.882 C 194.035 92.127,193.466 92.416,193.064 92.524 C 192.663 92.632,192.222 92.855,192.086 93.020 C 191.949 93.184,191.434 93.523,190.940 93.773 C 190.028 94.236,188.394 95.800,187.953 96.634 C 187.594 97.311,187.592 133.360,187.950 134.173 C 188.763 136.018,191.407 137.039,193.051 136.143 C 193.417 135.943,194.103 135.591,194.574 135.360 C 195.045 135.130,195.688 134.753,196.002 134.523 C 196.316 134.292,196.973 133.919,197.462 133.693 C 197.952 133.467,198.403 133.199,198.466 133.098 C 198.528 132.997,199.028 132.691,199.575 132.419 C 200.123 132.147,201.214 131.547,201.999 131.087 C 202.784 130.627,203.727 130.082,204.093 129.876 C 204.460 129.670,205.218 129.193,205.778 128.816 C 206.339 128.438,206.875 128.129,206.970 128.129 C 208.089 128.129,209.784 126.115,210.177 124.316 C 210.587 122.440,210.374 106.173,209.925 105.093 C 208.748 102.260,204.523 102.202,202.980 104.998 C 202.705 105.497,202.658 106.540,202.605 113.321 L 202.544 121.073 201.729 121.936 C 201.281 122.410,200.818 122.799,200.701 122.799 C 200.584 122.799,199.959 123.141,199.311 123.560 C 198.663 123.979,198.024 124.322,197.891 124.322 C 197.758 124.322,197.397 124.534,197.089 124.793 L 196.529 125.265 196.170 124.869 C 195.828 124.491,195.809 123.924,195.760 112.779 C 195.702 99.707,195.674 100.041,196.869 99.413 C 197.335 99.169,198.094 98.719,198.557 98.414 C 199.020 98.108,199.545 97.858,199.724 97.858 C 199.902 97.858,200.161 97.723,200.298 97.558 C 200.435 97.392,200.981 97.038,201.511 96.771 C 202.041 96.503,202.715 96.084,203.007 95.839 C 203.300 95.594,203.868 95.305,204.270 95.196 C 204.672 95.088,205.113 94.865,205.249 94.701 C 205.386 94.536,205.888 94.201,206.366 93.955 C 206.844 93.710,207.530 93.288,207.890 93.018 C 208.251 92.748,208.694 92.527,208.875 92.527 C 209.056 92.527,209.461 92.311,209.775 92.048 C 210.088 91.784,210.734 91.396,211.209 91.186 C 211.684 90.976,212.312 90.605,212.605 90.363 C 212.897 90.121,213.421 89.826,213.770 89.707 C 214.118 89.588,214.656 89.278,214.965 89.018 C 215.274 88.757,215.846 88.491,216.236 88.426 C 216.626 88.361,217.029 88.287,217.131 88.261 C 217.781 88.098,217.801 88.766,217.806 111.255 C 217.810 133.372,217.848 134.705,218.486 135.079 C 218.665 135.183,219.113 135.526,219.480 135.840 C 220.352 136.584,222.360 136.676,223.259 136.013 C 223.555 135.794,224.098 135.515,224.465 135.394 C 224.831 135.273,225.635 134.831,226.251 134.412 C 226.868 133.993,227.475 133.651,227.602 133.651 C 227.729 133.651,227.985 133.483,228.171 133.277 C 228.357 133.072,228.820 132.805,229.200 132.685 C 229.580 132.565,230.214 132.213,230.609 131.904 C 231.005 131.594,231.708 131.172,232.172 130.967 C 232.636 130.762,233.066 130.513,233.127 130.414 C 233.188 130.315,233.637 130.058,234.124 129.843 C 234.611 129.627,235.272 129.252,235.592 129.009 C 235.912 128.766,236.559 128.390,237.030 128.172 C 238.141 127.661,239.614 126.277,239.979 125.403 C 240.434 124.313,240.412 71.474,239.956 70.513 C 239.553 69.663,237.548 67.852,236.858 67.714 C 236.563 67.655,236.074 67.403,235.771 67.154 C 235.262 66.734,234.422 66.241,231.985 64.931 C 231.461 64.650,230.609 64.147,230.091 63.814 C 229.573 63.481,229.051 63.208,228.931 63.208 C 228.810 63.208,228.564 63.044,228.383 62.845 C 228.202 62.645,227.782 62.373,227.449 62.240 C 227.117 62.108,226.590 61.824,226.279 61.609 C 223.925 59.984,221.466 59.250,220.153 59.780 M99.572 68.426 C 99.310 68.570,98.868 68.777,98.591 68.886 C 98.313 68.996,97.776 69.551,97.399 70.120 L 96.712 71.154 96.761 98.008 C 96.811 124.755,96.813 124.864,97.200 125.306 C 97.415 125.550,97.712 125.993,97.860 126.289 C 98.009 126.586,98.364 126.950,98.649 127.097 C 98.934 127.245,99.280 127.520,99.417 127.710 C 99.555 127.899,99.967 128.174,100.333 128.321 C 100.700 128.467,101.317 128.815,101.706 129.094 C 102.094 129.372,102.694 129.711,103.038 129.847 C 103.383 129.984,103.836 130.239,104.046 130.414 C 104.255 130.590,104.726 130.846,105.093 130.984 C 105.459 131.123,106.016 131.469,106.330 131.754 C 106.644 132.039,107.244 132.381,107.663 132.513 C 108.082 132.645,108.706 132.998,109.050 133.297 C 109.394 133.596,109.764 133.841,109.872 133.841 C 109.981 133.841,110.448 134.102,110.911 134.420 C 111.374 134.738,112.108 135.124,112.542 135.278 C 112.977 135.431,113.609 135.727,113.947 135.936 C 114.779 136.450,116.834 136.470,117.490 135.970 C 117.740 135.780,118.244 135.506,118.610 135.362 C 118.977 135.218,119.701 134.811,120.221 134.458 C 120.740 134.105,121.398 133.769,121.683 133.712 C 121.968 133.655,122.393 133.404,122.628 133.154 C 122.863 132.903,123.152 132.699,123.269 132.699 C 123.387 132.699,124.070 132.313,124.787 131.842 C 125.505 131.371,126.201 130.985,126.334 130.985 C 126.468 130.985,126.819 130.783,127.115 130.535 C 127.411 130.288,127.844 130.026,128.077 129.953 C 128.310 129.880,128.921 129.531,129.436 129.177 C 129.951 128.823,130.699 128.396,131.100 128.229 C 131.500 128.061,131.963 127.802,132.128 127.653 C 132.413 127.395,133.460 126.811,135.690 125.665 C 136.236 125.385,136.836 125.028,137.023 124.873 C 137.210 124.718,137.620 124.469,137.934 124.319 C 138.248 124.170,138.819 123.809,139.202 123.516 C 139.585 123.224,140.256 122.858,140.692 122.704 C 141.128 122.551,141.629 122.267,141.804 122.074 C 141.979 121.882,142.592 121.516,143.166 121.262 C 143.739 121.008,144.358 120.652,144.541 120.471 C 144.724 120.291,145.111 120.087,145.402 120.018 C 145.693 119.950,146.145 119.705,146.406 119.474 C 146.668 119.242,147.282 118.826,147.771 118.547 C 148.570 118.092,148.700 117.918,149.071 116.805 C 149.297 116.125,149.565 115.517,149.667 115.454 C 149.776 115.386,149.783 115.249,149.683 115.119 C 149.591 114.997,149.322 114.412,149.087 113.818 C 148.231 111.657,145.106 110.855,143.105 112.281 C 142.670 112.591,141.928 113.015,141.456 113.222 C 140.985 113.429,140.486 113.736,140.347 113.905 C 140.207 114.074,139.779 114.313,139.395 114.436 C 139.010 114.559,138.416 114.868,138.074 115.123 C 137.733 115.379,136.977 115.806,136.395 116.072 C 135.813 116.338,135.294 116.668,135.241 116.805 C 135.189 116.941,134.948 117.102,134.706 117.163 C 134.464 117.224,133.845 117.557,133.331 117.902 C 132.817 118.248,132.101 118.649,131.739 118.792 C 131.377 118.935,130.908 119.206,130.697 119.393 C 130.486 119.581,129.988 119.870,129.590 120.037 C 129.192 120.203,128.523 120.588,128.102 120.893 C 127.682 121.197,127.045 121.543,126.687 121.661 C 126.328 121.780,126.035 121.960,126.035 122.063 C 126.035 122.165,125.628 122.429,125.131 122.649 C 124.634 122.869,123.817 123.330,123.317 123.674 C 122.817 124.018,122.217 124.359,121.984 124.432 C 121.752 124.505,121.319 124.767,121.023 125.014 C 120.727 125.262,120.373 125.464,120.235 125.464 C 120.098 125.464,119.565 125.754,119.050 126.108 C 118.237 126.667,116.358 127.561,115.326 127.880 C 115.140 127.938,114.993 127.885,114.993 127.760 C 114.993 127.638,114.524 127.330,113.950 127.076 C 113.376 126.822,112.550 126.356,112.113 126.040 C 111.676 125.723,111.206 125.464,111.069 125.464 C 110.932 125.464,110.624 125.260,110.384 125.010 C 110.144 124.761,109.632 124.456,109.247 124.333 C 108.861 124.211,108.235 123.863,107.854 123.561 C 107.474 123.259,106.778 122.864,106.307 122.685 C 104.679 122.063,104.819 124.397,104.712 96.112 L 104.617 71.044 104.188 70.588 C 103.953 70.338,103.760 70.046,103.760 69.940 C 103.760 69.058,100.538 67.893,99.572 68.426 M251.309 68.444 C 251.047 68.593,250.691 68.719,250.517 68.722 C 249.719 68.739,248.517 70.537,248.388 71.907 C 248.221 73.671,248.256 130.895,248.424 132.749 C 248.668 135.423,251.596 137.391,253.594 136.222 C 253.855 136.069,254.517 135.730,255.065 135.468 C 255.612 135.206,256.410 134.739,256.837 134.429 C 257.264 134.120,257.857 133.813,258.154 133.748 C 258.451 133.682,258.850 133.457,259.040 133.247 C 259.230 133.037,259.796 132.688,260.297 132.473 C 260.799 132.257,261.209 132.021,261.209 131.947 C 261.209 131.874,261.744 131.572,262.399 131.276 C 263.053 130.981,263.717 130.593,263.874 130.414 C 264.031 130.236,264.503 129.958,264.921 129.796 C 265.340 129.634,266.141 129.193,266.702 128.816 C 267.262 128.438,267.827 128.129,267.957 128.129 C 268.088 128.129,268.357 127.949,268.557 127.728 C 268.756 127.508,269.223 127.173,269.593 126.984 C 270.548 126.496,271.289 124.343,270.924 123.118 C 270.070 120.256,267.302 119.204,264.826 120.800 C 264.256 121.167,263.617 121.519,263.404 121.583 C 263.192 121.647,262.803 121.890,262.542 122.123 C 262.280 122.357,261.769 122.665,261.407 122.808 C 261.045 122.951,260.330 123.350,259.818 123.695 C 259.305 124.040,258.773 124.322,258.634 124.322 C 258.496 124.322,258.113 124.548,257.784 124.826 C 256.463 125.937,256.556 127.797,256.449 98.185 L 256.354 71.680 255.783 70.653 C 254.713 68.730,252.618 67.695,251.309 68.444 M357.410 77.188 C 356.865 77.320,356.115 77.660,355.744 77.944 C 355.372 78.227,354.790 78.552,354.450 78.665 C 354.110 78.779,353.617 79.066,353.356 79.303 C 353.094 79.541,352.451 79.930,351.928 80.167 C 351.404 80.405,350.825 80.753,350.642 80.940 C 350.458 81.127,349.979 81.369,349.577 81.477 C 349.176 81.585,348.699 81.838,348.517 82.038 C 348.336 82.238,347.744 82.593,347.202 82.826 C 346.660 83.059,346.106 83.407,345.971 83.600 C 345.836 83.792,345.398 84.037,344.997 84.145 C 344.596 84.253,343.945 84.598,343.550 84.912 C 343.155 85.226,342.761 85.483,342.674 85.483 C 342.420 85.483,340.600 87.317,340.600 87.572 C 340.600 87.701,340.470 88.080,340.310 88.415 C 340.058 88.946,340.028 90.801,340.072 102.818 L 340.124 116.611 340.701 117.468 C 342.215 119.712,345.718 119.527,347.306 117.119 C 347.618 116.647,347.642 115.736,347.643 104.366 C 347.644 91.081,347.599 91.610,348.782 91.007 C 349.191 90.798,349.842 90.412,350.230 90.149 C 350.617 89.887,351.052 89.672,351.197 89.672 C 351.342 89.672,351.897 89.372,352.430 89.005 C 352.962 88.639,353.509 88.339,353.644 88.339 C 353.780 88.339,354.250 88.039,354.688 87.673 C 355.127 87.306,355.635 87.006,355.818 87.006 C 356.001 87.006,356.442 86.788,356.799 86.521 C 357.645 85.888,359.764 84.592,360.511 84.250 C 362.684 83.255,363.343 80.172,361.782 78.307 C 360.658 76.965,359.526 76.675,357.410 77.188 M312.147 94.189 C 311.944 94.241,311.472 94.474,311.100 94.707 C 310.728 94.941,310.202 95.187,309.931 95.253 C 309.660 95.320,309.197 95.564,308.903 95.796 C 308.608 96.028,307.887 96.445,307.301 96.722 C 306.715 97.000,306.118 97.369,305.974 97.542 C 305.830 97.716,305.585 97.858,305.428 97.858 C 305.272 97.858,304.747 98.149,304.262 98.504 C 303.776 98.859,303.050 99.286,302.648 99.453 C 302.246 99.620,301.661 99.972,301.349 100.235 C 301.036 100.499,300.629 100.714,300.445 100.714 C 300.261 100.714,299.732 101.004,299.270 101.358 C 298.807 101.711,298.129 102.097,297.763 102.214 C 297.074 102.434,295.289 104.020,294.622 105.006 C 294.247 105.560,294.239 105.964,294.146 130.638 C 294.038 159.116,294.220 156.308,292.421 157.203 C 291.956 157.435,291.461 157.724,291.320 157.845 C 291.180 157.967,290.581 158.323,289.988 158.636 C 289.395 158.949,288.782 159.314,288.624 159.446 C 288.467 159.578,287.911 159.897,287.387 160.153 C 285.945 160.861,284.575 161.658,284.148 162.038 C 283.938 162.226,283.295 162.601,282.721 162.872 C 278.982 164.635,278.069 167.528,280.474 169.995 C 281.876 171.434,283.816 171.539,285.501 170.268 C 285.825 170.024,286.150 169.824,286.224 169.824 C 286.298 169.824,286.811 169.534,287.364 169.181 C 287.917 168.827,288.573 168.473,288.822 168.394 C 289.070 168.315,289.759 167.919,290.353 167.514 C 290.946 167.109,291.513 166.778,291.612 166.778 C 291.712 166.778,292.130 166.523,292.541 166.212 C 292.952 165.901,293.399 165.644,293.534 165.641 C 293.786 165.635,294.734 165.084,294.913 164.839 C 294.969 164.763,295.491 164.482,296.074 164.215 C 296.657 163.948,297.282 163.567,297.463 163.367 C 297.643 163.168,298.013 162.949,298.283 162.881 C 299.071 162.683,300.753 161.115,301.426 159.950 L 302.047 158.877 302.142 133.999 L 302.237 109.121 302.708 108.620 C 302.967 108.345,303.562 107.950,304.030 107.743 C 304.498 107.535,305.143 107.167,305.463 106.924 C 305.783 106.681,306.452 106.303,306.949 106.084 C 307.446 105.865,307.853 105.605,307.853 105.506 C 307.853 105.408,308.321 105.138,308.893 104.905 C 309.465 104.673,310.040 104.355,310.171 104.197 C 310.301 104.039,310.840 103.719,311.368 103.485 C 311.896 103.251,312.440 102.923,312.579 102.756 C 312.717 102.589,313.064 102.400,313.350 102.338 C 314.795 102.020,316.983 99.466,316.988 98.089 C 316.998 95.772,314.341 93.631,312.147 94.189 " stroke="none" fill="#ffffff" fill-rule="evenodd"></path><path id="path1" d="M0.000 95.193 L 0.000 190.386 200.000 190.386 L 400.000 190.386 400.000 95.193 L 400.000 0.000 200.000 0.000 L 0.000 0.000 0.000 95.193 M57.078 25.804 C 59.066 27.332,59.101 30.863,57.138 31.878 C 56.837 32.034,56.544 32.284,56.486 32.434 C 56.428 32.584,55.957 32.848,55.438 33.020 C 54.919 33.192,54.335 33.513,54.139 33.732 C 53.944 33.952,53.270 34.383,52.642 34.690 C 50.760 35.610,49.620 36.239,48.829 36.792 C 48.416 37.080,47.977 37.316,47.852 37.316 C 47.728 37.316,47.347 37.551,47.007 37.839 C 46.666 38.127,46.048 38.491,45.631 38.648 C 45.215 38.805,44.695 39.176,44.475 39.471 L 44.074 40.009 44.025 80.612 L 43.976 121.215 44.406 121.843 C 44.648 122.196,45.172 122.605,45.606 122.778 C 46.029 122.946,46.646 123.280,46.978 123.520 C 47.309 123.759,47.953 124.120,48.409 124.322 C 48.865 124.524,49.389 124.855,49.574 125.059 C 49.758 125.263,50.129 125.485,50.397 125.552 C 50.665 125.620,51.156 125.882,51.488 126.135 C 51.820 126.388,52.482 126.768,52.960 126.979 C 53.438 127.191,53.936 127.493,54.068 127.651 C 54.386 128.035,54.438 128.027,55.878 127.368 C 56.564 127.054,57.198 126.797,57.288 126.797 C 57.377 126.797,57.555 126.670,57.683 126.516 C 57.811 126.361,58.464 125.976,59.134 125.659 C 59.804 125.343,60.352 125.016,60.352 124.933 C 60.352 124.849,60.952 124.495,61.685 124.145 C 62.418 123.795,63.018 123.447,63.018 123.373 C 63.018 123.298,63.382 123.080,63.827 122.888 C 64.272 122.696,64.850 122.350,65.112 122.120 C 65.374 121.890,65.903 121.602,66.289 121.478 C 66.674 121.355,67.315 120.996,67.712 120.681 C 68.109 120.365,68.663 120.061,68.942 120.005 C 69.221 119.949,69.721 119.655,70.053 119.352 C 70.385 119.049,70.768 118.801,70.905 118.801 C 71.041 118.801,71.657 118.458,72.273 118.039 C 72.889 117.621,73.494 117.278,73.617 117.278 C 73.740 117.278,74.088 117.069,74.391 116.814 C 74.694 116.559,75.322 116.202,75.786 116.020 C 76.250 115.838,76.902 115.455,77.235 115.169 C 77.567 114.883,78.102 114.591,78.423 114.520 C 78.743 114.450,79.056 114.311,79.117 114.212 C 79.178 114.113,79.693 113.689,80.261 113.269 L 81.295 112.506 81.295 100.750 C 81.295 87.392,81.377 88.110,79.864 88.339 C 79.382 88.413,78.756 88.658,78.475 88.885 C 78.193 89.113,77.620 89.456,77.201 89.648 C 76.410 90.012,75.492 90.599,74.527 91.358 L 73.965 91.800 73.853 99.256 C 73.734 107.262,73.623 108.195,72.661 109.246 C 70.680 111.409,66.906 110.516,66.264 107.731 C 65.944 106.342,66.008 89.392,66.338 88.305 C 66.629 87.347,67.683 86.116,68.634 85.625 C 68.948 85.463,69.538 85.064,69.945 84.740 C 70.352 84.416,70.838 84.150,71.025 84.150 C 71.212 84.150,71.622 83.935,71.936 83.671 C 72.249 83.407,72.920 83.009,73.426 82.787 C 73.932 82.564,74.588 82.181,74.884 81.934 C 75.180 81.687,75.534 81.485,75.671 81.485 C 75.809 81.485,76.338 81.204,76.847 80.861 C 77.356 80.518,78.136 80.069,78.579 79.862 C 79.023 79.655,79.387 79.417,79.389 79.332 C 79.390 79.248,79.798 79.000,80.295 78.780 C 80.792 78.561,81.456 78.192,81.771 77.961 C 83.065 77.006,85.746 76.767,86.933 77.500 C 88.393 78.403,88.417 78.501,88.582 84.341 C 88.840 93.500,88.942 113.689,88.734 114.517 C 88.629 114.936,88.487 115.664,88.418 116.135 C 88.255 117.259,85.791 119.694,84.498 120.009 C 84.218 120.077,83.733 120.349,83.419 120.613 C 83.105 120.877,82.460 121.265,81.984 121.475 C 81.509 121.686,81.064 121.948,80.996 122.058 C 80.928 122.169,80.474 122.429,79.989 122.637 C 79.503 122.845,78.933 123.176,78.722 123.373 C 78.512 123.570,77.869 123.940,77.295 124.195 C 76.720 124.449,76.086 124.839,75.887 125.061 C 75.687 125.283,75.376 125.464,75.194 125.464 C 75.013 125.464,74.352 125.807,73.724 126.226 C 73.097 126.644,72.500 126.987,72.396 126.987 C 72.293 126.987,71.885 127.244,71.490 127.558 C 71.094 127.872,70.663 128.129,70.531 128.129 C 70.399 128.129,69.832 128.438,69.272 128.816 C 68.712 129.193,67.911 129.638,67.492 129.804 C 67.073 129.970,66.644 130.216,66.540 130.349 C 66.363 130.575,65.544 131.037,63.072 132.307 C 62.527 132.588,61.919 132.963,61.723 133.140 C 61.345 133.482,60.412 134.001,57.547 135.464 C 55.624 136.445,53.811 136.621,52.986 135.906 C 52.796 135.742,52.358 135.513,52.012 135.397 C 51.666 135.281,51.023 134.945,50.584 134.650 C 50.145 134.355,49.486 133.995,49.119 133.852 C 48.753 133.708,48.239 133.405,47.977 133.179 C 47.715 132.953,47.137 132.611,46.691 132.419 C 46.245 132.226,45.774 131.940,45.644 131.783 C 45.514 131.626,44.882 131.262,44.239 130.974 C 43.597 130.686,43.013 130.355,42.941 130.239 C 42.869 130.123,42.510 129.902,42.143 129.748 C 41.775 129.595,41.093 129.212,40.626 128.897 C 40.159 128.582,39.565 128.270,39.305 128.205 C 39.045 128.140,38.683 127.896,38.499 127.663 C 38.316 127.430,38.068 127.204,37.948 127.161 C 37.828 127.118,37.336 126.575,36.856 125.954 L 35.983 124.826 35.984 80.738 C 35.984 37.623,35.992 36.636,36.349 36.051 C 36.973 35.027,38.698 33.477,39.725 33.016 C 40.266 32.774,40.762 32.488,40.828 32.381 C 40.894 32.274,41.328 32.018,41.791 31.813 C 42.254 31.609,42.821 31.266,43.051 31.051 C 43.282 30.837,43.777 30.561,44.153 30.439 C 44.528 30.317,45.117 29.972,45.461 29.673 C 45.805 29.374,46.203 29.129,46.346 29.129 C 46.489 29.129,47.065 28.819,47.625 28.439 C 48.185 28.060,48.901 27.663,49.215 27.557 C 49.529 27.451,50.000 27.173,50.262 26.940 C 50.524 26.706,51.030 26.418,51.387 26.298 C 51.744 26.179,52.301 25.881,52.625 25.636 C 53.955 24.628,55.630 24.691,57.078 25.804 M269.420 25.782 C 271.449 27.375,271.621 30.839,269.720 31.816 C 269.489 31.934,269.086 32.221,268.824 32.454 C 268.563 32.686,268.049 32.991,267.682 33.131 C 267.316 33.271,266.716 33.612,266.349 33.889 C 265.983 34.165,265.383 34.508,265.017 34.651 C 264.650 34.794,264.115 35.103,263.828 35.338 C 263.540 35.574,263.114 35.827,262.881 35.901 C 262.647 35.975,262.026 36.319,261.499 36.665 C 260.973 37.011,260.312 37.350,260.029 37.418 C 259.747 37.486,259.391 37.732,259.239 37.964 C 259.087 38.196,258.628 38.487,258.218 38.609 C 256.644 39.081,256.545 39.357,256.545 43.256 C 256.545 46.480,256.568 46.707,256.925 46.945 C 257.335 47.217,258.652 46.778,259.297 46.153 C 259.459 45.997,260.019 45.646,260.543 45.374 C 262.958 44.119,263.610 43.746,263.967 43.416 C 264.178 43.221,264.736 42.961,265.207 42.838 C 265.678 42.716,266.252 42.495,266.482 42.347 C 267.343 41.796,269.953 42.913,270.525 44.077 C 271.579 46.223,270.880 48.652,268.910 49.690 C 268.392 49.963,267.634 50.418,267.227 50.700 C 266.820 50.983,266.340 51.214,266.162 51.214 C 265.983 51.214,265.674 51.397,265.475 51.622 C 265.275 51.847,264.657 52.233,264.101 52.481 C 263.545 52.729,262.860 53.102,262.578 53.309 C 262.064 53.686,261.331 54.099,259.220 55.197 C 258.598 55.521,257.913 55.950,257.697 56.151 C 257.482 56.352,257.079 56.573,256.801 56.641 C 256.524 56.710,256.098 56.952,255.855 57.179 C 253.646 59.243,250.309 58.872,248.676 56.381 C 248.326 55.847,248.083 41.679,248.359 37.929 L 248.489 36.163 249.950 34.688 C 251.014 33.614,251.629 33.148,252.216 32.973 C 252.660 32.840,253.022 32.656,253.022 32.565 C 253.022 32.474,253.418 32.208,253.901 31.974 C 254.384 31.740,255.207 31.261,255.729 30.910 C 256.251 30.559,256.827 30.271,257.010 30.271 C 257.193 30.271,257.505 30.091,257.705 29.870 C 257.904 29.649,258.564 29.199,259.171 28.870 C 259.779 28.541,260.692 28.048,261.200 27.774 C 261.709 27.501,262.369 27.109,262.666 26.903 C 262.964 26.698,263.508 26.416,263.874 26.276 C 264.241 26.136,264.712 25.875,264.921 25.697 C 266.237 24.578,267.927 24.610,269.420 25.782 M56.598 42.794 C 57.330 43.045,57.610 43.276,58.026 43.971 L 58.544 44.836 58.544 80.723 L 58.544 116.611 57.974 117.516 C 56.825 119.339,53.884 119.532,52.138 117.900 L 51.214 117.035 51.214 80.774 L 51.214 44.512 52.121 43.624 C 53.491 42.283,54.544 42.087,56.598 42.794 M345.209 42.644 C 345.937 42.918,346.414 43.268,346.930 43.908 L 347.644 44.793 347.644 54.455 C 347.644 63.641,347.662 64.140,348.003 64.561 L 348.363 65.005 349.384 64.361 C 349.945 64.006,350.705 63.567,351.073 63.384 C 351.441 63.202,351.904 62.873,352.102 62.654 C 352.300 62.435,352.582 62.256,352.728 62.256 C 353.081 62.256,354.086 61.729,354.541 61.304 C 354.742 61.118,355.301 60.814,355.783 60.630 C 356.265 60.446,356.956 60.094,357.319 59.848 C 358.588 58.986,359.957 59.292,361.525 60.786 C 363.760 62.918,362.775 66.166,359.448 67.635 C 358.977 67.843,358.420 68.160,358.210 68.340 C 358.001 68.520,357.530 68.780,357.163 68.916 C 356.797 69.053,356.170 69.418,355.771 69.727 C 355.372 70.037,354.766 70.367,354.426 70.461 C 354.085 70.555,353.518 70.889,353.166 71.203 C 352.814 71.518,352.425 71.775,352.303 71.775 C 352.180 71.775,351.712 72.042,351.263 72.367 C 350.813 72.693,350.072 73.086,349.616 73.242 C 349.160 73.397,348.786 73.603,348.786 73.699 C 348.786 73.794,348.291 74.112,347.686 74.406 C 347.080 74.699,346.319 75.136,345.993 75.376 C 344.003 76.848,341.362 75.776,340.137 72.999 L 339.626 71.843 339.734 67.668 C 339.793 65.372,339.905 59.338,339.983 54.260 L 340.124 45.026 340.600 44.074 C 341.349 42.575,343.364 41.950,345.209 42.644 M299.707 42.752 C 301.856 43.485,302.594 46.402,301.112 48.305 C 300.736 48.787,300.428 49.254,300.428 49.341 C 300.428 49.429,300.313 49.500,300.171 49.500 C 300.029 49.500,299.327 49.886,298.609 50.357 C 297.892 50.828,297.177 51.214,297.021 51.214 C 296.865 51.214,296.518 51.414,296.250 51.659 C 295.983 51.904,295.464 52.221,295.098 52.362 C 294.731 52.503,294.058 52.901,293.601 53.244 C 293.144 53.588,292.473 53.926,292.110 53.994 C 291.747 54.062,291.403 54.239,291.346 54.388 C 291.289 54.537,290.746 54.909,290.141 55.215 C 289.535 55.521,288.743 55.966,288.380 56.205 C 288.017 56.444,287.559 56.735,287.363 56.851 C 287.016 57.056,287.004 58.374,286.911 104.205 L 286.816 151.349 286.340 151.839 C 286.078 152.108,285.663 152.534,285.418 152.785 C 284.699 153.520,283.224 153.758,281.851 153.361 C 280.419 152.946,280.423 152.949,279.603 151.268 L 278.915 149.857 278.915 102.406 L 278.915 54.955 279.724 53.338 C 280.269 52.248,280.709 51.622,281.072 51.419 C 281.369 51.254,282.174 50.754,282.862 50.309 C 283.549 49.864,284.257 49.500,284.435 49.500 C 284.612 49.500,284.921 49.317,285.120 49.093 C 285.320 48.869,285.743 48.576,286.061 48.441 C 286.379 48.306,287.095 47.890,287.651 47.516 C 288.208 47.141,288.780 46.835,288.923 46.835 C 289.065 46.835,289.464 46.591,289.808 46.292 C 290.152 45.994,290.652 45.697,290.920 45.631 C 291.188 45.566,291.702 45.297,292.063 45.032 C 292.423 44.768,293.103 44.369,293.574 44.147 C 294.046 43.924,294.589 43.602,294.781 43.432 C 295.773 42.554,298.159 42.225,299.707 42.752 M314.608 51.190 C 315.027 51.280,315.398 51.632,316.035 52.547 L 316.897 53.784 316.950 63.168 C 317.008 73.578,317.065 73.049,315.723 74.616 C 314.154 76.449,312.207 76.494,310.426 74.739 C 309.074 73.406,308.996 73.015,308.996 67.605 C 308.996 61.833,308.754 61.253,306.997 62.809 C 306.787 62.995,306.320 63.264,305.958 63.407 C 305.596 63.550,304.880 63.950,304.368 64.295 C 303.855 64.639,303.330 64.921,303.199 64.921 C 302.234 64.921,302.244 64.800,302.142 77.952 L 302.047 90.181 301.326 91.266 C 300.895 91.915,300.397 92.424,300.088 92.531 C 299.804 92.629,299.329 92.840,299.033 93.000 C 298.352 93.365,297.308 93.373,297.012 93.016 C 296.887 92.865,296.532 92.687,296.224 92.619 C 295.915 92.551,295.514 92.283,295.333 92.024 C 295.151 91.764,294.810 91.309,294.574 91.013 L 294.146 90.473 294.146 76.581 C 294.146 62.976,294.154 62.678,294.526 62.204 C 294.736 61.938,294.907 61.625,294.907 61.508 C 294.907 61.195,296.846 59.401,297.186 59.398 C 297.346 59.397,297.839 59.109,298.282 58.757 C 298.724 58.406,299.366 58.005,299.709 57.868 C 300.052 57.730,300.575 57.419,300.871 57.176 C 301.167 56.933,301.514 56.735,301.642 56.735 C 301.770 56.735,302.461 56.349,303.179 55.878 C 303.896 55.407,304.592 55.021,304.726 55.021 C 304.859 55.021,305.211 54.823,305.507 54.580 C 305.803 54.338,306.345 54.020,306.711 53.875 C 307.078 53.730,307.695 53.384,308.084 53.105 C 308.472 52.827,309.072 52.488,309.416 52.352 C 309.761 52.215,310.230 51.937,310.459 51.733 C 311.144 51.120,313.093 50.865,314.608 51.190 M331.527 52.140 L 332.508 53.122 332.559 86.934 L 332.610 120.746 333.200 121.568 C 333.525 122.020,334.059 122.496,334.387 122.625 C 334.715 122.754,335.240 123.048,335.554 123.278 C 335.869 123.508,336.597 123.933,337.173 124.221 C 337.749 124.510,338.356 124.865,338.522 125.011 C 338.885 125.330,340.318 126.110,342.459 127.156 L 344.032 127.924 344.722 127.456 C 345.102 127.198,345.498 126.987,345.603 126.987 C 345.708 126.987,346.337 126.644,347.000 126.226 C 347.663 125.807,348.304 125.464,348.423 125.464 C 348.543 125.464,348.934 125.207,349.291 124.893 C 349.649 124.579,350.058 124.322,350.199 124.322 C 350.341 124.322,350.904 124.014,351.450 123.639 C 351.997 123.263,352.752 122.849,353.129 122.718 C 354.610 122.205,354.581 122.370,354.688 113.885 L 354.783 106.330 355.323 105.282 C 356.089 103.795,356.199 103.677,357.235 103.219 C 359.858 102.059,362.497 103.788,362.779 106.851 C 362.997 109.227,362.800 124.537,362.543 125.125 C 362.224 125.858,360.054 127.944,359.271 128.271 C 358.910 128.422,358.353 128.743,358.032 128.985 C 357.711 129.227,357.107 129.566,356.690 129.738 C 356.272 129.910,355.758 130.205,355.548 130.392 C 355.337 130.580,354.864 130.848,354.498 130.988 C 354.131 131.129,353.532 131.472,353.165 131.752 C 352.799 132.031,352.097 132.411,351.607 132.596 C 351.116 132.780,350.670 133.048,350.615 133.190 C 350.561 133.332,350.206 133.578,349.827 133.736 C 349.448 133.895,348.780 134.264,348.343 134.558 C 347.906 134.852,347.249 135.210,346.882 135.355 C 346.516 135.499,346.059 135.752,345.866 135.916 C 345.011 136.647,342.936 136.446,341.062 135.452 C 340.127 134.956,338.894 134.302,338.323 133.998 C 337.751 133.695,337.148 133.325,336.983 133.175 C 336.818 133.026,336.343 132.763,335.928 132.592 C 335.513 132.421,334.894 132.069,334.552 131.811 C 334.210 131.553,333.546 131.172,333.076 130.964 C 332.607 130.757,332.223 130.515,332.223 130.427 C 332.223 130.340,331.758 130.079,331.191 129.849 C 330.623 129.619,330.017 129.274,329.844 129.083 C 329.672 128.892,329.121 128.560,328.621 128.345 C 328.121 128.130,327.598 127.816,327.459 127.648 C 327.319 127.480,326.964 127.218,326.670 127.066 C 326.052 126.747,325.451 125.668,325.066 124.191 C 324.557 122.238,324.678 55.055,325.192 53.689 C 325.974 51.615,326.884 51.020,329.147 51.106 L 330.545 51.159 331.527 52.140 M117.635 60.237 C 118.188 60.625,118.727 61.238,119.086 61.888 L 119.657 62.922 119.657 89.291 L 119.657 115.659 119.039 116.922 C 117.549 119.969,112.875 119.575,111.948 116.326 C 111.530 114.859,111.703 62.726,112.129 61.891 C 113.327 59.543,115.647 58.846,117.635 60.237 M162.989 60.386 C 163.527 60.838,164.042 61.407,164.135 61.650 C 164.447 62.470,164.347 124.932,164.032 125.679 C 163.720 126.416,162.336 127.632,161.187 128.179 C 160.754 128.384,160.227 128.710,160.017 128.903 C 159.806 129.096,159.206 129.441,158.684 129.670 C 158.162 129.900,157.492 130.290,157.196 130.536 C 156.900 130.783,156.545 130.985,156.406 130.985 C 156.268 130.985,155.696 131.296,155.136 131.675 C 154.575 132.054,153.860 132.453,153.546 132.562 C 153.232 132.671,152.751 132.945,152.477 133.172 C 152.202 133.398,151.688 133.698,151.334 133.838 C 150.980 133.978,150.476 134.279,150.214 134.507 C 149.952 134.735,149.267 135.116,148.691 135.354 C 148.115 135.592,147.489 135.924,147.300 136.091 C 146.579 136.728,144.499 136.506,143.545 135.689 C 143.092 135.301,142.654 134.983,142.573 134.983 C 142.096 134.983,141.861 132.043,142.241 130.817 C 142.474 130.063,143.483 129.241,145.198 128.406 C 145.737 128.143,146.281 127.805,146.406 127.653 C 146.532 127.502,147.076 127.156,147.615 126.884 C 149.416 125.976,150.654 125.280,150.959 125.003 C 151.125 124.853,151.690 124.546,152.213 124.323 C 152.737 124.099,153.338 123.754,153.548 123.557 C 153.759 123.359,154.359 123.010,154.881 122.780 C 155.403 122.550,156.105 122.054,156.441 121.676 L 157.052 120.990 157.060 96.025 C 157.069 68.774,157.138 70.406,155.997 70.826 C 155.018 71.186,153.751 71.859,153.032 72.402 C 152.645 72.695,151.952 73.062,151.492 73.219 C 149.771 73.805,149.833 73.328,149.833 85.997 L 149.833 97.025 149.266 98.703 C 148.627 100.594,147.984 101.340,146.292 102.153 C 145.759 102.409,145.174 102.783,144.993 102.982 C 144.813 103.182,144.444 103.401,144.174 103.468 C 143.904 103.536,143.330 103.834,142.898 104.131 C 142.467 104.428,141.777 104.812,141.364 104.984 C 140.951 105.157,140.454 105.442,140.258 105.619 C 140.063 105.796,139.485 106.157,138.975 106.421 C 136.704 107.596,135.815 108.125,135.477 108.499 C 135.278 108.720,134.995 108.901,134.849 108.901 C 134.566 108.901,133.428 109.441,133.270 109.651 C 132.351 110.868,129.278 110.656,127.941 109.283 L 126.987 108.304 126.987 106.781 C 126.987 104.772,127.221 104.339,128.858 103.305 C 129.295 103.029,129.653 102.736,129.653 102.654 C 129.653 102.571,129.974 102.388,130.366 102.246 C 130.759 102.104,131.497 101.701,132.006 101.351 C 132.515 101.001,133.039 100.714,133.170 100.714 C 133.301 100.714,133.717 100.468,134.094 100.168 C 134.472 99.868,135.062 99.509,135.406 99.370 C 135.749 99.231,136.447 98.834,136.956 98.488 C 137.465 98.141,137.984 97.858,138.109 97.858 C 138.234 97.858,138.631 97.637,138.992 97.367 C 139.353 97.097,139.991 96.711,140.411 96.511 C 141.816 95.839,141.731 96.623,141.842 83.294 C 141.926 73.249,141.989 71.182,142.228 70.579 C 142.512 69.862,144.842 67.777,145.359 67.777 C 145.487 67.777,145.919 67.518,146.319 67.200 C 146.718 66.883,147.423 66.456,147.884 66.252 C 148.345 66.048,148.979 65.665,149.292 65.401 C 149.606 65.137,149.975 64.921,150.112 64.921 C 150.250 64.921,150.778 64.638,151.288 64.292 C 151.797 63.946,152.503 63.545,152.857 63.402 C 153.212 63.258,153.726 62.955,154.000 62.727 C 154.274 62.500,154.727 62.258,155.007 62.190 C 155.287 62.122,155.772 61.850,156.085 61.587 C 156.398 61.323,157.111 60.885,157.670 60.613 C 158.229 60.341,158.986 59.951,159.353 59.748 C 160.458 59.133,161.776 59.364,162.989 60.386 M193.408 60.221 C 195.039 61.390,195.724 63.323,194.955 64.584 C 194.746 64.927,194.575 65.349,194.575 65.522 C 194.574 65.903,192.481 67.494,191.594 67.787 C 191.244 67.902,190.957 68.076,190.957 68.173 C 190.957 68.270,190.314 68.662,189.529 69.046 C 188.743 69.429,188.101 69.805,188.101 69.881 C 188.101 69.958,187.737 70.165,187.292 70.342 C 186.847 70.519,186.310 70.824,186.099 71.020 C 185.888 71.216,185.374 71.519,184.957 71.693 C 184.540 71.867,183.948 72.192,183.642 72.416 C 183.336 72.640,182.651 73.037,182.119 73.298 C 180.448 74.121,180.593 71.763,180.485 99.857 L 180.390 124.798 179.675 125.885 C 179.093 126.770,178.819 127.011,178.207 127.176 C 177.794 127.287,177.404 127.462,177.341 127.563 C 176.878 128.312,174.200 127.232,173.251 125.914 L 172.584 124.988 172.584 98.016 L 172.584 71.044 173.013 70.588 C 173.248 70.338,173.441 70.039,173.441 69.926 C 173.441 69.655,175.611 67.777,175.924 67.777 C 176.057 67.777,176.454 67.558,176.806 67.289 C 177.158 67.021,177.815 66.638,178.265 66.438 C 178.716 66.239,179.412 65.816,179.812 65.499 C 180.211 65.181,180.681 64.921,180.855 64.921 C 181.029 64.921,181.512 64.672,181.927 64.367 C 182.342 64.061,183.065 63.661,183.535 63.476 C 184.004 63.291,184.460 63.020,184.549 62.874 C 184.637 62.728,185.078 62.450,185.529 62.257 C 185.981 62.063,186.714 61.641,187.159 61.319 C 187.604 60.997,188.063 60.733,188.180 60.733 C 188.298 60.733,188.724 60.509,189.127 60.234 C 190.641 59.206,191.986 59.201,193.408 60.221 M269.261 60.216 C 269.991 60.690,270.306 61.058,270.656 61.851 L 271.109 62.875 271.108 84.888 C 271.107 100.101,271.043 107.137,270.901 107.663 C 269.981 111.057,264.610 111.369,263.668 108.083 C 263.364 107.023,263.443 62.555,263.750 61.822 C 264.640 59.695,267.273 58.928,269.261 60.216 M224.105 60.405 C 224.990 60.852,225.968 61.394,226.279 61.609 C 226.590 61.824,227.117 62.108,227.449 62.240 C 227.782 62.373,228.202 62.645,228.383 62.845 C 228.564 63.044,228.810 63.208,228.931 63.208 C 229.051 63.208,229.573 63.481,230.091 63.814 C 230.609 64.147,231.461 64.650,231.985 64.931 C 234.422 66.241,235.262 66.734,235.771 67.154 C 236.074 67.403,236.563 67.655,236.858 67.714 C 237.548 67.852,239.553 69.663,239.956 70.513 C 240.412 71.474,240.434 124.313,239.979 125.403 C 239.614 126.277,238.141 127.661,237.030 128.172 C 236.559 128.390,235.912 128.766,235.592 129.009 C 235.272 129.252,234.611 129.627,234.124 129.843 C 233.637 130.058,233.188 130.315,233.127 130.414 C 233.066 130.513,232.636 130.762,232.172 130.967 C 231.708 131.172,231.005 131.594,230.609 131.904 C 230.214 132.213,229.580 132.565,229.200 132.685 C 228.820 132.805,228.357 133.072,228.171 133.277 C 227.985 133.483,227.729 133.651,227.602 133.651 C 227.475 133.651,226.868 133.993,226.251 134.412 C 225.635 134.831,224.831 135.273,224.465 135.394 C 224.098 135.515,223.555 135.794,223.259 136.013 C 222.360 136.676,220.352 136.584,219.480 135.840 C 219.113 135.526,218.665 135.183,218.486 135.079 C 217.848 134.705,217.810 133.372,217.806 111.255 C 217.801 88.766,217.781 88.098,217.131 88.261 C 217.029 88.287,216.626 88.361,216.236 88.426 C 215.846 88.491,215.274 88.757,214.965 89.018 C 214.656 89.278,214.118 89.588,213.770 89.707 C 213.421 89.826,212.897 90.121,212.605 90.363 C 212.312 90.605,211.684 90.976,211.209 91.186 C 210.734 91.396,210.088 91.784,209.775 92.048 C 209.461 92.311,209.056 92.527,208.875 92.527 C 208.694 92.527,208.251 92.748,207.890 93.018 C 207.530 93.288,206.844 93.710,206.366 93.955 C 205.888 94.201,205.386 94.536,205.249 94.701 C 205.113 94.865,204.672 95.088,204.270 95.196 C 203.868 95.305,203.300 95.594,203.007 95.839 C 202.715 96.084,202.041 96.503,201.511 96.771 C 200.981 97.038,200.435 97.392,200.298 97.558 C 200.161 97.723,199.902 97.858,199.724 97.858 C 199.545 97.858,199.020 98.108,198.557 98.414 C 198.094 98.719,197.335 99.169,196.869 99.413 C 195.674 100.041,195.702 99.707,195.760 112.779 C 195.809 123.924,195.828 124.491,196.170 124.869 L 196.529 125.265 197.089 124.793 C 197.397 124.534,197.758 124.322,197.891 124.322 C 198.024 124.322,198.663 123.979,199.311 123.560 C 199.959 123.141,200.584 122.799,200.701 122.799 C 200.818 122.799,201.281 122.410,201.729 121.936 L 202.544 121.073 202.605 113.321 C 202.658 106.540,202.705 105.497,202.980 104.998 C 204.523 102.202,208.748 102.260,209.925 105.093 C 210.374 106.173,210.587 122.440,210.177 124.316 C 209.784 126.115,208.089 128.129,206.970 128.129 C 206.875 128.129,206.339 128.438,205.778 128.816 C 205.218 129.193,204.460 129.670,204.093 129.876 C 203.727 130.082,202.784 130.627,201.999 131.087 C 201.214 131.547,200.123 132.147,199.575 132.419 C 199.028 132.691,198.528 132.997,198.466 133.098 C 198.403 133.199,197.952 133.467,197.462 133.693 C 196.973 133.919,196.316 134.292,196.002 134.523 C 195.688 134.753,195.045 135.130,194.574 135.360 C 194.103 135.591,193.417 135.943,193.051 136.143 C 191.407 137.039,188.763 136.018,187.950 134.173 C 187.592 133.360,187.594 97.311,187.953 96.634 C 188.394 95.800,190.028 94.236,190.940 93.773 C 191.434 93.523,191.949 93.184,192.086 93.020 C 192.222 92.855,192.663 92.632,193.064 92.524 C 193.466 92.416,194.035 92.127,194.327 91.882 C 194.620 91.637,195.245 91.244,195.716 91.009 C 196.188 90.773,196.744 90.429,196.954 90.245 C 197.163 90.060,197.649 89.808,198.033 89.685 C 198.418 89.562,198.830 89.344,198.950 89.200 C 199.069 89.055,199.612 88.706,200.155 88.423 C 200.698 88.139,201.384 87.705,201.680 87.457 C 201.976 87.209,202.374 87.006,202.563 87.006 C 202.753 87.006,203.344 86.706,203.877 86.340 C 204.410 85.973,204.894 85.673,204.954 85.673 C 205.013 85.673,205.589 85.331,206.234 84.912 C 206.878 84.493,207.547 84.150,207.719 84.150 C 207.891 84.150,208.196 83.969,208.395 83.747 C 208.595 83.526,209.215 83.142,209.773 82.894 C 210.332 82.646,211.045 82.228,211.359 81.964 C 211.672 81.701,212.039 81.485,212.174 81.485 C 212.308 81.485,212.923 81.143,213.539 80.724 C 214.155 80.305,214.752 79.963,214.864 79.962 C 214.977 79.962,215.490 79.662,216.006 79.296 C 216.521 78.929,217.082 78.629,217.251 78.629 C 217.420 78.629,217.880 78.373,218.274 78.061 C 220.217 76.516,223.615 76.807,224.614 78.604 C 225.528 80.247,225.498 79.535,225.603 102.615 L 225.702 124.412 226.229 124.665 C 226.796 124.936,228.438 124.347,229.319 123.556 C 229.529 123.368,230.122 123.013,230.637 122.768 C 231.296 122.455,231.703 122.097,232.009 121.561 L 232.444 120.800 232.453 98.049 L 232.462 75.297 232.033 74.487 C 231.722 73.899,231.369 73.567,230.747 73.275 C 230.276 73.054,229.634 72.690,229.319 72.467 C 229.005 72.244,228.352 71.877,227.867 71.652 C 227.383 71.427,226.923 71.142,226.847 71.018 C 226.770 70.893,226.311 70.622,225.826 70.414 C 225.342 70.207,224.796 69.876,224.613 69.680 C 224.430 69.484,223.762 69.134,223.129 68.903 C 222.496 68.672,221.933 68.410,221.877 68.321 C 221.746 68.108,221.038 68.110,221.038 68.323 C 221.038 68.414,220.516 68.678,219.879 68.910 C 219.242 69.142,218.555 69.499,218.352 69.702 C 218.149 69.904,217.535 70.284,216.988 70.544 C 215.594 71.208,213.928 72.221,213.459 72.691 C 213.241 72.909,212.764 73.143,212.398 73.211 C 212.033 73.280,211.578 73.509,211.388 73.720 C 211.198 73.932,210.585 74.307,210.027 74.555 C 209.468 74.803,208.755 75.221,208.441 75.485 C 208.128 75.748,207.748 75.964,207.596 75.964 C 207.445 75.964,206.885 76.264,206.352 76.630 C 205.819 76.997,205.267 77.297,205.126 77.297 C 204.984 77.297,204.572 77.556,204.210 77.874 C 203.849 78.192,203.160 78.585,202.681 78.749 C 202.201 78.912,201.809 79.122,201.809 79.215 C 201.809 79.308,201.359 79.610,200.809 79.885 C 200.259 80.160,199.553 80.576,199.238 80.808 C 198.924 81.041,198.382 81.329,198.034 81.448 C 197.686 81.568,197.154 81.874,196.852 82.128 C 196.550 82.382,195.914 82.739,195.438 82.920 C 194.963 83.102,194.574 83.322,194.574 83.410 C 194.574 83.890,193.280 84.237,191.471 84.241 L 189.605 84.246 188.663 83.226 L 187.720 82.206 187.720 80.718 C 187.720 78.836,187.923 78.532,190.380 76.729 C 190.954 76.308,191.562 75.964,191.732 75.964 C 191.902 75.964,192.387 75.713,192.810 75.407 C 193.232 75.101,194.016 74.663,194.552 74.432 C 195.088 74.202,195.526 73.934,195.526 73.838 C 195.526 73.742,196.061 73.406,196.716 73.092 C 198.555 72.209,199.975 71.361,200.245 70.985 C 200.380 70.798,200.851 70.548,201.292 70.432 C 201.733 70.315,202.308 70.018,202.570 69.772 C 202.832 69.526,203.475 69.142,203.998 68.919 C 204.522 68.696,205.121 68.358,205.331 68.169 C 205.540 67.979,206.026 67.724,206.410 67.601 C 206.795 67.478,207.223 67.239,207.362 67.070 C 207.501 66.901,207.976 66.604,208.416 66.408 C 208.856 66.213,209.471 65.839,209.782 65.578 C 210.093 65.316,210.619 65.007,210.951 64.892 C 211.282 64.776,211.969 64.414,212.476 64.088 C 214.556 62.749,215.260 62.341,215.838 62.140 C 216.173 62.023,216.706 61.710,217.023 61.443 C 217.339 61.176,218.029 60.815,218.554 60.640 C 219.080 60.466,219.563 60.238,219.627 60.134 C 220.145 59.295,222.153 59.417,224.105 60.405 M102.047 68.664 C 102.908 68.947,103.760 69.582,103.760 69.940 C 103.760 70.046,103.953 70.338,104.188 70.588 L 104.617 71.044 104.712 96.112 C 104.819 124.397,104.679 122.063,106.307 122.685 C 106.778 122.864,107.474 123.259,107.854 123.561 C 108.235 123.863,108.861 124.211,109.247 124.333 C 109.632 124.456,110.144 124.761,110.384 125.010 C 110.624 125.260,110.932 125.464,111.069 125.464 C 111.206 125.464,111.676 125.723,112.113 126.040 C 112.550 126.356,113.376 126.822,113.950 127.076 C 114.524 127.330,114.993 127.638,114.993 127.760 C 114.993 127.885,115.140 127.938,115.326 127.880 C 116.358 127.561,118.237 126.667,119.050 126.108 C 119.565 125.754,120.098 125.464,120.235 125.464 C 120.373 125.464,120.727 125.262,121.023 125.014 C 121.319 124.767,121.752 124.505,121.984 124.432 C 122.217 124.359,122.817 124.018,123.317 123.674 C 123.817 123.330,124.634 122.869,125.131 122.649 C 125.628 122.429,126.035 122.165,126.035 122.063 C 126.035 121.960,126.328 121.780,126.687 121.661 C 127.045 121.543,127.682 121.197,128.102 120.893 C 128.523 120.588,129.192 120.203,129.590 120.037 C 129.988 119.870,130.486 119.581,130.697 119.393 C 130.908 119.206,131.377 118.935,131.739 118.792 C 132.101 118.649,132.817 118.248,133.331 117.902 C 133.845 117.557,134.464 117.224,134.706 117.163 C 134.948 117.102,135.189 116.941,135.241 116.805 C 135.294 116.668,135.813 116.338,136.395 116.072 C 136.977 115.806,137.733 115.379,138.074 115.123 C 138.416 114.868,139.010 114.559,139.395 114.436 C 139.779 114.313,140.207 114.074,140.347 113.905 C 140.486 113.736,140.985 113.429,141.456 113.222 C 141.928 113.015,142.670 112.591,143.105 112.281 C 145.106 110.855,148.231 111.657,149.087 113.818 C 149.322 114.412,149.591 114.997,149.683 115.119 C 149.783 115.249,149.776 115.386,149.667 115.454 C 149.565 115.517,149.297 116.125,149.071 116.805 C 148.700 117.918,148.570 118.092,147.771 118.547 C 147.282 118.826,146.668 119.242,146.406 119.474 C 146.145 119.705,145.693 119.950,145.402 120.018 C 145.111 120.087,144.724 120.291,144.541 120.471 C 144.358 120.652,143.739 121.008,143.166 121.262 C 142.592 121.516,141.979 121.882,141.804 122.074 C 141.629 122.267,141.128 122.551,140.692 122.704 C 140.256 122.858,139.585 123.224,139.202 123.516 C 138.819 123.809,138.248 124.170,137.934 124.319 C 137.620 124.469,137.210 124.718,137.023 124.873 C 136.836 125.028,136.236 125.385,135.690 125.665 C 133.460 126.811,132.413 127.395,132.128 127.653 C 131.963 127.802,131.500 128.061,131.100 128.229 C 130.699 128.396,129.951 128.823,129.436 129.177 C 128.921 129.531,128.310 129.880,128.077 129.953 C 127.844 130.026,127.411 130.288,127.115 130.535 C 126.819 130.783,126.468 130.985,126.334 130.985 C 126.201 130.985,125.505 131.371,124.787 131.842 C 124.070 132.313,123.387 132.699,123.269 132.699 C 123.152 132.699,122.863 132.903,122.628 133.154 C 122.393 133.404,121.968 133.655,121.683 133.712 C 121.398 133.769,120.740 134.105,120.221 134.458 C 119.701 134.811,118.977 135.218,118.610 135.362 C 118.244 135.506,117.740 135.780,117.490 135.970 C 116.834 136.470,114.779 136.450,113.947 135.936 C 113.609 135.727,112.977 135.431,112.542 135.278 C 112.108 135.124,111.374 134.738,110.911 134.420 C 110.448 134.102,109.981 133.841,109.872 133.841 C 109.764 133.841,109.394 133.596,109.050 133.297 C 108.706 132.998,108.082 132.645,107.663 132.513 C 107.244 132.381,106.644 132.039,106.330 131.754 C 106.016 131.469,105.459 131.123,105.093 130.984 C 104.726 130.846,104.255 130.590,104.046 130.414 C 103.836 130.239,103.383 129.984,103.038 129.847 C 102.694 129.711,102.094 129.372,101.706 129.094 C 101.317 128.815,100.700 128.467,100.333 128.321 C 99.967 128.174,99.555 127.899,99.417 127.710 C 99.280 127.520,98.934 127.245,98.649 127.097 C 98.364 126.950,98.009 126.586,97.860 126.289 C 97.712 125.993,97.415 125.550,97.200 125.306 C 96.813 124.864,96.811 124.755,96.761 98.008 L 96.712 71.154 97.399 70.120 C 97.776 69.551,98.313 68.996,98.591 68.886 C 98.868 68.777,99.310 68.570,99.572 68.426 C 100.078 68.146,100.630 68.199,102.047 68.664 M253.425 68.561 C 254.756 69.022,254.993 69.232,255.783 70.653 L 256.354 71.680 256.449 98.185 C 256.556 127.797,256.463 125.937,257.784 124.826 C 258.113 124.548,258.496 124.322,258.634 124.322 C 258.773 124.322,259.305 124.040,259.818 123.695 C 260.330 123.350,261.045 122.951,261.407 122.808 C 261.769 122.665,262.280 122.357,262.542 122.123 C 262.803 121.890,263.192 121.647,263.404 121.583 C 263.617 121.519,264.256 121.167,264.826 120.800 C 267.302 119.204,270.070 120.256,270.924 123.118 C 271.289 124.343,270.548 126.496,269.593 126.984 C 269.223 127.173,268.756 127.508,268.557 127.728 C 268.357 127.949,268.088 128.129,267.957 128.129 C 267.827 128.129,267.262 128.438,266.702 128.816 C 266.141 129.193,265.340 129.634,264.921 129.796 C 264.503 129.958,264.031 130.236,263.874 130.414 C 263.717 130.593,263.053 130.981,262.399 131.276 C 261.744 131.572,261.209 131.874,261.209 131.947 C 261.209 132.021,260.799 132.257,260.297 132.473 C 259.796 132.688,259.230 133.037,259.040 133.247 C 258.850 133.457,258.451 133.682,258.154 133.748 C 257.857 133.813,257.264 134.120,256.837 134.429 C 256.410 134.739,255.612 135.206,255.065 135.468 C 254.517 135.730,253.855 136.069,253.594 136.222 C 251.596 137.391,248.668 135.423,248.424 132.749 C 248.256 130.895,248.221 73.671,248.388 71.907 C 248.517 70.537,249.719 68.739,250.517 68.722 C 250.691 68.719,251.047 68.593,251.309 68.444 C 251.939 68.083,252.063 68.090,253.425 68.561 M360.127 77.129 C 363.220 77.908,363.489 82.887,360.511 84.250 C 359.764 84.592,357.645 85.888,356.799 86.521 C 356.442 86.788,356.001 87.006,355.818 87.006 C 355.635 87.006,355.127 87.306,354.688 87.673 C 354.250 88.039,353.780 88.339,353.644 88.339 C 353.509 88.339,352.962 88.639,352.430 89.005 C 351.897 89.372,351.342 89.672,351.197 89.672 C 351.052 89.672,350.617 89.887,350.230 90.149 C 349.842 90.412,349.191 90.798,348.782 91.007 C 347.599 91.610,347.644 91.081,347.643 104.366 C 347.642 115.736,347.618 116.647,347.306 117.119 C 345.718 119.527,342.215 119.712,340.701 117.468 L 340.124 116.611 340.072 102.818 C 340.028 90.801,340.058 88.946,340.310 88.415 C 340.470 88.080,340.600 87.701,340.600 87.572 C 340.600 87.317,342.420 85.483,342.674 85.483 C 342.761 85.483,343.155 85.226,343.550 84.912 C 343.945 84.598,344.596 84.253,344.997 84.145 C 345.398 84.037,345.836 83.792,345.971 83.600 C 346.106 83.407,346.660 83.059,347.202 82.826 C 347.744 82.593,348.336 82.238,348.517 82.038 C 348.699 81.838,349.176 81.585,349.577 81.477 C 349.979 81.369,350.458 81.127,350.642 80.940 C 350.825 80.753,351.404 80.405,351.928 80.167 C 352.451 79.930,353.094 79.541,353.356 79.303 C 353.617 79.066,354.110 78.779,354.450 78.665 C 354.790 78.552,355.372 78.227,355.744 77.944 C 356.855 77.096,358.662 76.760,360.127 77.129 M314.882 94.707 C 316.908 96.012,317.535 98.093,316.405 99.762 C 315.703 100.799,314.064 102.181,313.350 102.338 C 313.064 102.400,312.717 102.589,312.579 102.756 C 312.440 102.923,311.896 103.251,311.368 103.485 C 310.840 103.719,310.301 104.039,310.171 104.197 C 310.040 104.355,309.465 104.673,308.893 104.905 C 308.321 105.138,307.853 105.408,307.853 105.506 C 307.853 105.605,307.446 105.865,306.949 106.084 C 306.452 106.303,305.783 106.681,305.463 106.924 C 305.143 107.167,304.498 107.535,304.030 107.743 C 303.562 107.950,302.967 108.345,302.708 108.620 L 302.237 109.121 302.142 133.999 L 302.047 158.877 301.426 159.950 C 300.753 161.115,299.071 162.683,298.283 162.881 C 298.013 162.949,297.643 163.168,297.463 163.367 C 297.282 163.567,296.657 163.948,296.074 164.215 C 295.491 164.482,294.969 164.763,294.913 164.839 C 294.734 165.084,293.786 165.635,293.534 165.641 C 293.399 165.644,292.952 165.901,292.541 166.212 C 292.130 166.523,291.712 166.778,291.612 166.778 C 291.513 166.778,290.946 167.109,290.353 167.514 C 289.759 167.919,289.070 168.315,288.822 168.394 C 288.573 168.473,287.917 168.827,287.364 169.181 C 286.811 169.534,286.298 169.824,286.224 169.824 C 286.150 169.824,285.825 170.024,285.501 170.268 C 283.816 171.539,281.876 171.434,280.474 169.995 C 278.069 167.528,278.982 164.635,282.721 162.872 C 283.295 162.601,283.938 162.226,284.148 162.038 C 284.575 161.658,285.945 160.861,287.387 160.153 C 287.911 159.897,288.467 159.578,288.624 159.446 C 288.782 159.314,289.395 158.949,289.988 158.636 C 290.581 158.323,291.180 157.967,291.320 157.845 C 291.461 157.724,291.956 157.435,292.421 157.203 C 294.220 156.308,294.038 159.116,294.146 130.638 C 294.239 105.964,294.247 105.560,294.622 105.006 C 295.289 104.020,297.074 102.434,297.763 102.214 C 298.129 102.097,298.807 101.711,299.270 101.358 C 299.732 101.004,300.261 100.714,300.445 100.714 C 300.629 100.714,301.036 100.499,301.349 100.235 C 301.661 99.972,302.246 99.620,302.648 99.453 C 303.050 99.286,303.776 98.859,304.262 98.504 C 304.747 98.149,305.272 97.858,305.428 97.858 C 305.585 97.858,305.830 97.716,305.974 97.542 C 306.118 97.369,306.715 97.000,307.301 96.722 C 307.887 96.445,308.608 96.028,308.903 95.796 C 309.197 95.564,309.660 95.320,309.931 95.253 C 310.202 95.187,310.728 94.941,311.100 94.707 C 312.483 93.841,313.537 93.840,314.882 94.707 " stroke="none" fill="#5593b3" fill-rule="evenodd"></path></g></svg>