<svg id="svg" version="1.1" xmlns="http://www.w3.org/2000/svg" xmlns:xlink="http://www.w3.org/1999/xlink" width="400" height="767.3469387755101" viewBox="0, 0, 400,767.3469387755101"><g id="svgg"><path id="path0" d="M167.000 25.060 C 164.016 25.502,161.062 26.639,156.800 28.985 C 154.270 30.378,150.887 32.172,149.282 32.973 C 147.678 33.773,145.115 35.229,143.588 36.208 C 142.060 37.187,138.873 38.962,136.505 40.152 C 134.137 41.342,130.525 43.418,128.478 44.765 C 126.431 46.112,123.122 48.035,121.124 49.038 C 119.126 50.042,116.121 51.719,114.446 52.767 C 112.771 53.814,109.002 55.960,106.071 57.536 C 103.140 59.112,99.990 60.918,99.071 61.548 C 98.152 62.178,95.780 63.557,93.800 64.613 C 91.820 65.669,88.400 67.645,86.200 69.006 C 84.000 70.366,80.580 72.316,78.600 73.338 C 68.730 78.435,60.336 87.589,58.090 95.706 C 57.014 99.596,57.020 609.520,58.096 613.709 C 60.261 622.132,68.361 631.026,79.406 637.109 C 81.390 638.201,84.270 639.906,85.806 640.898 C 87.343 641.889,90.613 643.709,93.074 644.941 C 95.535 646.173,99.225 648.284,101.274 649.632 C 103.323 650.981,106.620 652.897,108.600 653.892 C 110.580 654.886,113.428 656.492,114.928 657.460 C 116.428 658.428,119.308 660.050,121.326 661.063 C 123.345 662.077,126.617 663.932,128.598 665.186 C 130.579 666.440,133.820 668.332,135.800 669.392 C 137.780 670.451,140.762 672.188,142.427 673.251 C 144.092 674.314,146.972 675.883,148.827 676.737 C 150.682 677.592,154.000 679.120,156.200 680.133 C 170.030 686.502,179.184 685.098,196.600 673.933 C 198.140 672.946,201.560 670.999,204.200 669.606 C 206.840 668.214,209.990 666.407,211.200 665.592 C 212.410 664.776,215.020 663.245,217.000 662.189 C 218.980 661.132,222.436 659.127,224.680 657.733 C 226.924 656.339,230.152 654.564,231.853 653.788 C 233.555 653.013,236.939 651.060,239.374 649.448 C 241.808 647.837,245.780 645.429,248.200 644.097 C 255.921 639.848,261.668 636.555,266.600 633.556 C 269.240 631.950,273.110 629.745,275.200 628.657 C 277.290 627.568,280.547 625.731,282.439 624.574 C 284.330 623.417,287.333 621.739,289.113 620.844 C 290.892 619.949,294.775 617.728,297.741 615.909 C 300.708 614.089,304.724 611.746,306.667 610.701 C 311.797 607.945,322.034 602.086,326.200 599.523 C 328.180 598.305,331.291 596.559,333.113 595.643 C 334.936 594.727,337.636 593.205,339.113 592.260 C 340.591 591.315,343.420 589.675,345.400 588.614 C 351.216 585.499,362.640 577.696,364.638 575.473 C 367.703 572.064,370.622 564.984,371.594 558.600 C 371.890 556.659,371.987 524.871,371.910 455.000 L 371.800 354.200 370.921 351.119 C 365.673 332.720,348.337 327.396,330.101 338.583 C 327.406 340.236,323.896 342.209,322.301 342.967 C 320.705 343.726,317.780 345.367,315.800 346.614 C 313.820 347.862,310.670 349.655,308.800 350.599 C 306.930 351.544,303.723 353.419,301.674 354.768 C 299.625 356.116,295.939 358.227,293.484 359.458 C 291.029 360.689,287.755 362.551,286.207 363.595 C 284.660 364.639,281.865 366.262,279.997 367.201 C 278.129 368.141,274.979 369.941,272.998 371.201 C 271.017 372.462,267.687 374.351,265.598 375.399 C 263.509 376.447,259.910 378.512,257.600 379.989 C 255.290 381.466,252.514 383.188,251.430 383.816 C 245.382 387.322,238.944 395.526,237.475 401.600 C 235.396 410.192,235.400 410.081,235.400 459.000 L 235.400 504.600 236.323 509.704 C 238.879 523.841,245.246 530.042,257.870 530.687 C 265.962 531.101,269.978 529.710,274.843 524.807 C 282.124 517.471,281.998 518.393,282.007 472.117 C 282.015 425.578,282.138 423.828,285.697 419.784 C 287.691 417.519,296.912 411.352,302.483 408.559 C 304.844 407.374,307.817 405.737,309.088 404.921 C 316.161 400.382,321.575 400.452,323.727 405.111 L 324.600 407.000 324.707 472.763 C 324.824 544.594,324.925 541.215,322.553 544.800 C 321.136 546.941,316.179 551.104,312.425 553.306 C 309.098 555.257,298.206 561.403,293.800 563.816 C 292.260 564.659,289.535 566.294,287.745 567.448 C 285.954 568.603,282.879 570.356,280.911 571.344 C 278.943 572.333,275.278 574.390,272.766 575.916 C 270.255 577.441,266.850 579.368,265.200 580.198 C 263.550 581.027,260.827 582.585,259.148 583.661 C 256.293 585.489,251.891 588.008,241.431 593.800 C 239.047 595.120,234.952 597.597,232.331 599.306 C 229.709 601.014,225.627 603.383,223.259 604.570 C 220.891 605.758,217.254 607.800,215.177 609.109 C 213.099 610.417,210.230 612.078,208.800 612.799 C 207.370 613.521,204.579 615.142,202.598 616.402 C 200.617 617.662,197.327 619.532,195.288 620.556 C 193.249 621.580,190.279 623.255,188.690 624.278 C 181.451 628.936,172.244 632.619,168.594 632.316 C 166.073 632.107,157.010 627.831,150.686 623.867 C 148.439 622.458,145.430 620.717,144.000 619.997 C 142.570 619.278,139.780 617.659,137.800 616.400 C 135.820 615.140,132.850 613.430,131.200 612.600 C 129.550 611.769,126.145 609.841,123.634 608.316 C 121.122 606.790,117.456 604.732,115.487 603.743 C 109.847 600.911,107.228 597.851,105.692 592.299 C 104.619 588.424,104.618 121.981,105.690 118.106 C 107.258 112.442,109.650 109.501,114.905 106.775 C 116.717 105.835,120.180 103.858,122.600 102.383 C 125.020 100.907,128.471 98.962,130.270 98.061 C 132.068 97.159,135.337 95.244,137.534 93.804 C 139.731 92.365,142.892 90.566,144.559 89.806 C 146.226 89.047,149.257 87.372,151.295 86.085 C 153.333 84.798,156.800 82.785,159.000 81.613 C 161.200 80.440,163.752 78.968,164.671 78.342 C 165.590 77.715,168.740 75.918,171.671 74.348 C 184.289 67.590,189.756 61.852,192.555 52.427 C 196.463 39.268,181.228 22.953,167.000 25.060 M163.686 129.176 C 155.253 131.587,149.605 137.389,147.697 145.600 C 146.866 149.177,146.827 559.388,147.657 564.200 C 150.163 578.719,170.401 586.527,183.331 577.963 C 186.988 575.540,192.413 566.304,193.880 560.000 C 194.841 555.872,195.208 156.915,194.255 151.398 C 193.340 146.095,189.186 137.502,185.880 134.073 C 181.509 129.540,170.731 127.162,163.686 129.176 " stroke="none" fill="#f7f9fa" fill-rule="evenodd"></path><path id="path1" d="M0.000 383.600 L 0.000 767.200 200.000 767.200 L 400.000 767.200 400.000 383.600 L 400.000 0.000 200.000 0.000 L 0.000 0.000 0.000 383.600 M176.658 26.047 C 186.947 29.225,195.319 43.118,192.555 52.427 C 189.756 61.852,184.289 67.590,171.671 74.348 C 168.740 75.918,165.590 77.715,164.671 78.342 C 163.752 78.968,161.200 80.440,159.000 81.613 C 156.800 82.785,153.333 84.798,151.295 86.085 C 149.257 87.372,146.226 89.047,144.559 89.806 C 142.892 90.566,139.731 92.365,137.534 93.804 C 135.337 95.244,132.068 97.159,130.270 98.061 C 128.471 98.962,125.020 100.907,122.600 102.383 C 120.180 103.858,116.717 105.835,114.905 106.775 C 109.650 109.501,107.258 112.442,105.690 118.106 C 104.618 121.981,104.619 588.424,105.692 592.299 C 107.228 597.851,109.847 600.911,115.487 603.743 C 117.456 604.732,121.122 606.790,123.634 608.316 C 126.145 609.841,129.550 611.769,131.200 612.600 C 132.850 613.430,135.820 615.140,137.800 616.400 C 139.780 617.659,142.570 619.278,144.000 619.997 C 145.430 620.717,148.439 622.458,150.686 623.867 C 157.010 627.831,166.073 632.107,168.594 632.316 C 172.244 632.619,181.451 628.936,188.690 624.278 C 190.279 623.255,193.249 621.580,195.288 620.556 C 197.327 619.532,200.617 617.662,202.598 616.402 C 204.579 615.142,207.370 613.521,208.800 612.799 C 210.230 612.078,213.099 610.417,215.177 609.109 C 217.254 607.800,220.891 605.758,223.259 604.570 C 225.627 603.383,229.709 601.014,232.331 599.306 C 234.952 597.597,239.047 595.120,241.431 593.800 C 251.891 588.008,256.293 585.489,259.148 583.661 C 260.827 582.585,263.550 581.027,265.200 580.198 C 266.850 579.368,270.255 577.441,272.766 575.916 C 275.278 574.390,278.943 572.333,280.911 571.344 C 282.879 570.356,285.954 568.603,287.745 567.448 C 289.535 566.294,292.260 564.659,293.800 563.816 C 298.206 561.403,309.098 555.257,312.425 553.306 C 316.179 551.104,321.136 546.941,322.553 544.800 C 324.925 541.215,324.824 544.594,324.707 472.763 L 324.600 407.000 323.727 405.111 C 321.575 400.452,316.161 400.382,309.088 404.921 C 307.817 405.737,304.844 407.374,302.483 408.559 C 296.912 411.352,287.691 417.519,285.697 419.784 C 282.138 423.828,282.015 425.578,282.007 472.117 C 281.998 518.393,282.124 517.471,274.843 524.807 C 269.978 529.710,265.962 531.101,257.870 530.687 C 245.246 530.042,238.879 523.841,236.323 509.704 L 235.400 504.600 235.400 459.000 C 235.400 410.081,235.396 410.192,237.475 401.600 C 238.944 395.526,245.382 387.322,251.430 383.816 C 252.514 383.188,255.290 381.466,257.600 379.989 C 259.910 378.512,263.509 376.447,265.598 375.399 C 267.687 374.351,271.017 372.462,272.998 371.201 C 274.979 369.941,278.129 368.141,279.997 367.201 C 281.865 366.262,284.660 364.639,286.207 363.595 C 287.755 362.551,291.029 360.689,293.484 359.458 C 295.939 358.227,299.625 356.116,301.674 354.768 C 303.723 353.419,306.930 351.544,308.800 350.599 C 310.670 349.655,313.820 347.862,315.800 346.614 C 317.780 345.367,320.705 343.726,322.301 342.967 C 323.896 342.209,327.406 340.236,330.101 338.583 C 348.337 327.396,365.673 332.720,370.921 351.119 L 371.800 354.200 371.910 455.000 C 371.987 524.871,371.890 556.659,371.594 558.600 C 370.622 564.984,367.703 572.064,364.638 575.473 C 362.640 577.696,351.216 585.499,345.400 588.614 C 343.420 589.675,340.591 591.315,339.113 592.260 C 337.636 593.205,334.936 594.727,333.113 595.643 C 331.291 596.559,328.180 598.305,326.200 599.523 C 322.034 602.086,311.797 607.945,306.667 610.701 C 304.724 611.746,300.708 614.089,297.741 615.909 C 294.775 617.728,290.892 619.949,289.113 620.844 C 287.333 621.739,284.330 623.417,282.439 624.574 C 280.547 625.731,277.290 627.568,275.200 628.657 C 273.110 629.745,269.240 631.950,266.600 633.556 C 261.668 636.555,255.921 639.848,248.200 644.097 C 245.780 645.429,241.808 647.837,239.374 649.448 C 236.939 651.060,233.555 653.013,231.853 653.788 C 230.152 654.564,226.924 656.339,224.680 657.733 C 222.436 659.127,218.980 661.132,217.000 662.189 C 215.020 663.245,212.410 664.776,211.200 665.592 C 209.990 666.407,206.840 668.214,204.200 669.606 C 201.560 670.999,198.140 672.946,196.600 673.933 C 179.184 685.098,170.030 686.502,156.200 680.133 C 154.000 679.120,150.682 677.592,148.827 676.737 C 146.972 675.883,144.092 674.314,142.427 673.251 C 140.762 672.188,137.780 670.451,135.800 669.392 C 133.820 668.332,130.579 666.440,128.598 665.186 C 126.617 663.932,123.345 662.077,121.326 661.063 C 119.308 660.050,116.428 658.428,114.928 657.460 C 113.428 656.492,110.580 654.886,108.600 653.892 C 106.620 652.897,103.323 650.981,101.274 649.632 C 99.225 648.284,95.535 646.173,93.074 644.941 C 90.613 643.709,87.343 641.889,85.806 640.898 C 84.270 639.906,81.390 638.201,79.406 637.109 C 68.361 631.026,60.261 622.132,58.096 613.709 C 57.020 609.520,57.014 99.596,58.090 95.706 C 60.336 87.589,68.730 78.435,78.600 73.338 C 80.580 72.316,84.000 70.366,86.200 69.006 C 88.400 67.645,91.820 65.669,93.800 64.613 C 95.780 63.557,98.152 62.178,99.071 61.548 C 99.990 60.918,103.140 59.112,106.071 57.536 C 109.002 55.960,112.771 53.814,114.446 52.767 C 116.121 51.719,119.126 50.042,121.124 49.038 C 123.122 48.035,126.431 46.112,128.478 44.765 C 130.525 43.418,134.137 41.342,136.505 40.152 C 138.873 38.962,142.060 37.187,143.588 36.208 C 145.115 35.229,147.678 33.773,149.282 32.973 C 150.887 32.172,154.270 30.378,156.800 28.985 C 164.508 24.742,169.866 23.949,176.658 26.047 M175.816 129.004 C 185.319 131.411,192.261 139.843,194.255 151.398 C 195.208 156.915,194.841 555.872,193.880 560.000 C 192.413 566.304,186.988 575.540,183.331 577.963 C 170.401 586.527,150.163 578.719,147.657 564.200 C 146.827 559.388,146.866 149.177,147.697 145.600 C 150.543 133.350,163.286 125.830,175.816 129.004 " stroke="none" fill="#5291b1" fill-rule="evenodd"></path></g></svg>